<?xml version="1.0" encoding="UTF-8"?>
<svg version="1.1" xmlns="http://www.w3.org/2000/svg" width="1024" height="1024">
<path d="M0 0 C8.25286182 6.31643614 13.08345268 13.88234226 16.0625 23.8125 C17.27787121 35.96621211 14.74105561 45.54317557 7.3125 55.3125 C6.5390625 56.42818359 6.5390625 56.42818359 5.75 57.56640625 C5.275625 58.14261719 4.80125 58.71882813 4.3125 59.3125 C3.6525 59.3125 2.9925 59.3125 2.3125 59.3125 C1.3225 61.2925 1.3225 61.2925 0.3125 63.3125 C-0.3475 63.3125 -1.0075 63.3125 -1.6875 63.3125 C-2.05875 64.17875 -2.05875 64.17875 -2.4375 65.0625 C-3.87049988 67.64189979 -5.47174676 69.37371592 -7.6875 71.3125 C-8.3475 71.3125 -9.0075 71.3125 -9.6875 71.3125 C-10.04953616 72.16084632 -10.04953616 72.16084632 -10.41888618 73.02633095 C-11.94444127 75.77553389 -13.76912984 77.658247 -15.98532104 79.89120483 C-16.88787125 80.80517532 -17.79042145 81.71914581 -18.72032166 82.66081238 C-19.72342497 83.66640629 -20.72664864 84.67188017 -21.72998047 85.67724609 C-22.78506957 86.74159612 -23.83976251 87.80633899 -24.89408875 88.8714447 C-27.75941245 91.7629878 -30.63136532 94.64785509 -33.50538015 97.53075743 C-35.30376678 99.33501378 -37.10097624 101.14043469 -38.89783096 102.94621658 C-44.52840097 108.60413697 -50.16296683 114.25803252 -55.80336559 119.90615499 C-62.29808363 126.40981685 -68.77955521 132.92630269 -75.24965942 139.45445001 C-80.26083227 144.50899758 -85.28361321 149.55181887 -90.31518662 154.58605826 C-93.31527479 157.58823363 -96.3103968 160.59497806 -99.29351425 163.61402512 C-102.10547814 166.45919286 -104.9317223 169.28939007 -107.76903725 172.1092701 C-108.80129482 173.1399994 -109.82855465 174.17576541 -110.8500309 175.21718025 C-119.91000065 184.44335451 -129.47454371 191.24455706 -142.75 191.625 C-157.29133846 191.44862258 -166.70285995 183.62279025 -176.46875 173.796875 C-177.51718079 172.75131439 -177.51718079 172.75131439 -178.58679199 171.68463135 C-180.04794802 170.22482604 -181.50662286 168.76253332 -182.96289062 167.29785156 C-185.20218013 165.04774898 -187.45207857 162.80864668 -189.703125 160.5703125 C-191.12564258 159.14647503 -192.54754057 157.72201821 -193.96875 156.296875 C-194.98104675 155.29065094 -194.98104675 155.29065094 -196.01379395 154.26409912 C-196.93605774 153.33237885 -196.93605774 153.33237885 -197.87695312 152.38183594 C-198.42130005 151.83589783 -198.96564697 151.28995972 -199.52648926 150.72747803 C-200.6875 149.3125 -200.6875 149.3125 -200.6875 147.3125 C-201.27917969 147.05855469 -201.87085938 146.80460938 -202.48046875 146.54296875 C-204.9305973 145.17696788 -206.2234582 143.78313789 -208 141.625 C-210.31133141 138.86822999 -212.66277036 136.36786205 -215.3125 133.9375 C-222.28915593 127.02355558 -225.59721152 117.53557811 -225.71875 107.8125 C-224.99635789 96.25422624 -220.08484158 88.11399061 -211.6875 80.3125 C-202.42438896 73.0148092 -192.09514336 72.44194644 -180.6875 73.3125 C-172.14319186 75.02136163 -166.77668529 80.41662218 -160.6875 86.3125 C-159.04873088 87.77876711 -157.40324121 89.23757001 -155.75 90.6875 C-150.33447802 95.4641673 -150.33447802 95.4641673 -148.6875 97.3125 C-148.6875 97.9725 -148.6875 98.6325 -148.6875 99.3125 C-144.80525247 99.7145018 -144.80525247 99.7145018 -142.70556355 97.81437492 C-142.00562873 97.10685648 -141.30569391 96.39933804 -140.58454895 95.67037964 C-139.77588379 94.86287766 -138.96721863 94.05537567 -138.13404846 93.22340393 C-137.25554733 92.32580856 -136.3770462 91.4282132 -135.47192383 90.50341797 C-134.53116691 89.55662172 -133.58950367 88.61072527 -132.64700317 87.66566467 C-130.61737578 85.62677369 -128.59418089 83.5817762 -126.57566261 81.53188705 C-123.37833848 78.28523847 -120.16634459 75.05337467 -116.95207214 71.82351685 C-110.7028306 65.53995658 -104.46841948 59.2418004 -98.23576355 52.94179535 C-90.32194966 44.94348999 -82.40246175 36.95086688 -74.46781176 28.97322762 C-71.2801536 25.76728856 -68.10033404 22.55383682 -64.92656577 19.33414912 C-62.94021682 17.32204733 -60.94754264 15.31629744 -58.95323563 13.31208611 C-57.60314682 11.95146157 -56.26070593 10.58326132 -54.91859436 9.21476746 C-39.40668788 -6.32837246 -19.60508725 -13.39461666 0 0 Z " fill="#1BB9A6" transform="translate(313.6875,384.6875)"/>
<path d="M0 0 C4.60136571 2.92386612 8.39157239 6.67948874 12.29296875 10.45703125 C13.93173787 11.92329836 15.57722754 13.38210126 17.23046875 14.83203125 C22.64599073 19.60869855 22.64599073 19.60869855 24.29296875 21.45703125 C24.29296875 22.11703125 24.29296875 22.77703125 24.29296875 23.45703125 C24.95296875 23.45703125 25.61296875 23.45703125 26.29296875 23.45703125 C26.29296875 24.11703125 26.29296875 24.77703125 26.29296875 25.45703125 C26.95296875 25.45703125 27.61296875 25.45703125 28.29296875 25.45703125 C29.30789377 27.11465153 30.30501415 28.78319628 31.29296875 30.45703125 C32.67939386 32.01972754 34.11761514 33.53737684 35.59326172 35.01611328 C36.45780975 35.88696564 37.32235779 36.75781799 38.21310425 37.65505981 C39.14438141 38.58228851 40.07565857 39.50951721 41.03515625 40.46484375 C42.00567349 41.43670981 42.97589381 42.40887247 43.9458313 43.38131714 C45.97513892 45.4135658 48.00800021 47.44217254 50.04345703 49.46826172 C52.64492335 52.05833416 55.23730684 54.65728259 57.82708549 57.25903511 C59.82752909 59.26672488 61.83273556 61.26960319 63.8393898 63.27108383 C65.26060377 64.69032534 66.67780921 66.11357731 68.09494019 67.53689575 C68.96579254 68.40144379 69.8366449 69.26599182 70.73388672 70.15673828 C71.49539032 70.9166507 72.25689392 71.67656311 73.04147339 72.45950317 C75.58977134 74.84389628 75.58977134 74.84389628 80.29296875 77.45703125 C104.54796875 53.20203125 104.54796875 53.20203125 129.29296875 28.45703125 C129.29296875 32.01576028 128.85549068 32.27375281 126.45050049 34.70063782 C125.81995255 35.34398071 125.1894046 35.98732361 124.53974915 36.65016174 C123.83859482 37.34995651 123.13744049 38.04975128 122.41503906 38.77075195 C121.31741493 39.88348984 121.31741493 39.88348984 120.19761658 41.01870728 C117.76344609 43.48148907 115.31800059 45.93268852 112.87109375 48.3828125 C111.17325795 50.09028703 109.47564956 51.79798772 107.77825928 53.50590515 C104.20893358 57.09322999 100.63342202 60.6742602 97.05419922 64.25170898 C92.48618448 68.81942024 87.93907543 73.40733043 83.39720535 78.00101948 C79.89173629 81.53999724 76.37256038 85.06510069 72.84951019 88.58656883 C71.16869547 90.27090751 69.49270529 91.96007582 67.82181549 93.65426064 C46.44086853 115.30497982 46.44086853 115.30497982 30.23046875 115.76953125 C15.68913029 115.59315383 6.2776088 107.7673215 -3.48828125 97.94140625 C-4.53671204 96.89584564 -4.53671204 96.89584564 -5.60632324 95.8291626 C-7.06747927 94.36935729 -8.52615411 92.90706457 -9.98242188 91.44238281 C-12.22171138 89.19228023 -14.47160982 86.95317793 -16.72265625 84.71484375 C-18.14517383 83.29100628 -19.56707182 81.86654946 -20.98828125 80.44140625 C-21.66314575 79.77059021 -22.33801025 79.09977417 -23.0333252 78.40863037 C-23.64816772 77.78748352 -24.26301025 77.16633667 -24.89648438 76.52636719 C-25.4408313 75.98042908 -25.98517822 75.43449097 -26.54602051 74.87200928 C-27.70703125 73.45703125 -27.70703125 73.45703125 -27.70703125 71.45703125 C-28.29871094 71.20308594 -28.89039062 70.94914063 -29.5 70.6875 C-31.95012855 69.32149913 -33.24298945 67.92766914 -35.01953125 65.76953125 C-37.33086266 63.01276124 -39.68230161 60.5123933 -42.33203125 58.08203125 C-49.30868718 51.16808683 -52.61674277 41.68010936 -52.73828125 31.95703125 C-52.01588914 20.39875749 -47.10437283 12.25852186 -38.70703125 4.45703125 C-28.24108944 -3.78827715 -12.1577922 -5.76324153 0 0 Z " fill="#16A895" transform="translate(140.70703125,460.54296875)"/>
<path d="M0 0 C3.18346742 3.08203341 5.39195321 6.72652098 7.59375 10.54296875 C8.2125 11.57421875 8.83125 12.60546875 9.46875 13.66796875 C12.23310337 20.75265882 11.86209858 30.51948366 8.96875 37.48046875 C5.55063791 43.89395822 1.02353568 49.71649259 -4.40625 54.54296875 C-5.06625 54.54296875 -5.72625 54.54296875 -6.40625 54.54296875 C-6.40625 55.20296875 -6.40625 55.86296875 -6.40625 56.54296875 C-8.02704079 58.25428192 -9.70254405 59.91418344 -11.40625 61.54296875 C-12.9931487 63.13901719 -14.57930334 64.73580569 -16.16479492 66.33325195 C-20.67466608 70.87497112 -25.18882335 75.41238581 -29.70624828 79.94659138 C-32.43237967 82.68321738 -35.15658343 85.42170991 -37.87670898 88.16430664 C-40.5170628 90.82632205 -43.16221221 93.48348262 -45.81081581 96.13728905 C-46.81851711 97.14869115 -47.82445385 98.16185447 -48.82860374 99.17678261 C-50.22639933 100.58900828 -51.63097682 101.99451175 -53.03588867 103.3996582 C-53.83355148 104.20176224 -54.63121429 105.00386627 -55.45304871 105.83027649 C-57.40625 107.54296875 -57.40625 107.54296875 -59.40625 107.54296875 C-59.40625 108.20296875 -59.40625 108.86296875 -59.40625 109.54296875 C-69.44462557 115.18308698 -77.48906208 118.05641664 -88.8984375 115.3203125 C-99.43455537 112.05444419 -106.66801825 106.10645297 -111.84375 96.29296875 C-115.81527163 87.40515823 -114.97111606 78.54321092 -111.69921875 69.61328125 C-106.71548114 58.28039846 -95.4452314 49.3949727 -86.8125 40.7109375 C-86.22519608 40.11955805 -85.63789215 39.5281786 -85.03279114 38.91887856 C-81.93248904 35.7979066 -78.82905804 32.68008444 -75.72314453 29.56469727 C-72.53753309 26.36796765 -69.36379283 23.15971024 -66.19245148 19.94883251 C-63.72829749 17.4584486 -61.2552171 14.97707309 -58.77970886 12.49798012 C-57.60587575 11.31930992 -56.43539083 10.13729446 -55.26850891 8.95174217 C-39.46411278 -7.09003138 -20.07675485 -15.389022 0 0 Z " fill="#59CDB7" transform="translate(309.40625,528.45703125)"/>
<path d="M0 0 C6.93 0 13.86 0 21 0 C21.77308603 3.09234414 22.12423285 5.09223753 22.12025452 8.16351318 C22.12231651 9.39602058 22.12231651 9.39602058 22.12442017 10.65342712 C22.11902725 11.99238792 22.11902725 11.99238792 22.11352539 13.35839844 C22.11367142 14.30507889 22.11381744 15.25175934 22.1139679 16.22712708 C22.11327153 19.3545664 22.10549198 22.48194608 22.09765625 25.609375 C22.09579109 27.77842171 22.09436765 29.94746883 22.09336853 32.11651611 C22.08955106 37.82441369 22.07972731 43.53228582 22.06866455 49.24017334 C22.0584339 55.06505997 22.05386736 60.88995072 22.04882812 66.71484375 C22.03810438 78.14324035 22.02103717 89.57161806 22 101 C17.6852274 101.94110889 13.589032 102.1172559 9.1875 102.0625 C8.49462891 102.05798828 7.80175781 102.05347656 7.08789062 102.04882812 C5.39188932 102.03713156 3.69593297 102.01919924 2 102 C1.67 100.35 1.34 98.7 1 97 C0.01 97.66 -0.98 98.32 -2 99 C-11.10713914 104.04893697 -19.81936019 105.58735789 -30.0625 102.875 C-40.21507917 99.43776317 -47.48596184 93.01739535 -52.28515625 83.43359375 C-56.86582072 72.15432318 -57.29358404 60.30415123 -52.80859375 48.99609375 C-47.80824713 38.10978054 -41.16995944 31.42619141 -30 27 C-21.85296644 24.37892568 -12.55791928 25.22104036 -5 29 C-2.525 30.98 -2.525 30.98 0 33 C0 22.11 0 11.22 0 0 Z M-31 52 C-34.73272096 57.94470375 -35.77941135 64.33754787 -34.3125 71.1875 C-32.34439487 77.74350582 -28.91457087 81.6022678 -23 85 C-18.1188251 86.6270583 -14.25594987 86.41143185 -9.375 84.8125 C-4.0085858 81.93053682 -0.84498401 78.81129325 1 73 C1.77115141 64.99257896 2.28089757 56.58838667 -3 50 C-7.34519433 45.96517669 -9.94885118 44.83676176 -15.8125 44.75 C-16.85019531 44.72421875 -17.88789062 44.6984375 -18.95703125 44.671875 C-24.17967629 45.2350357 -27.65110116 48.09295135 -31 52 Z " fill="#00312D" transform="translate(568,468)"/>
<path d="M0 0 C0.33 0 0.66 0 1 0 C1.68621115 9.32511943 2.09809953 18.53570262 1.9375 27.890625 C1.98984927 30.49500112 2.21930363 32.53592707 3 35 C3.71542969 34.566875 4.43085937 34.13375 5.16796875 33.6875 C13.64798937 28.94834229 21.09544602 27.07243619 30.64453125 29.73828125 C38.37873186 32.85504866 43.43926292 38.57077553 47 46 C48.99089328 53.38257584 49.27609588 60.7542257 49.1953125 68.35546875 C49.1924826 69.38311844 49.18965271 70.41076813 49.18673706 71.46955872 C49.175661 74.70899771 49.15058083 77.94814646 49.125 81.1875 C49.11495392 83.40168868 49.10583094 85.61588175 49.09765625 87.83007812 C49.07576309 93.22014888 49.04241364 98.6100537 49 104 C44.71241806 104.93011526 40.62488089 105.15028833 36.25 105.125 C35.56550781 105.12886719 34.88101563 105.13273438 34.17578125 105.13671875 C29.12672061 105.12672061 29.12672061 105.12672061 28 104 C27.89349332 102.6253503 27.85382474 101.24542048 27.84228516 99.86669922 C27.83202301 98.98843475 27.82176086 98.11017029 27.81118774 97.20529175 C27.80388641 96.24809235 27.79658508 95.29089294 27.7890625 94.3046875 C27.76097763 92.28905461 27.73231307 90.27342972 27.703125 88.2578125 C27.66196223 85.07161825 27.62508777 81.8855709 27.59863281 78.69921875 C27.57092095 75.62989063 27.52502911 72.56124888 27.4765625 69.4921875 C27.47330963 68.54713348 27.47005676 67.60207947 27.46670532 66.62838745 C27.36308359 61.01662507 26.75504617 56.93473808 24 52 C20.06543858 49.37695905 16.69039866 48.9358578 12 49 C7.82440932 50.46918931 5.13075238 52.07492982 3 56 C1.8151862 61.25203207 1.88731456 66.38856793 1.9375 71.73828125 C1.94128662 72.65965378 1.94507324 73.58102631 1.94897461 74.53031921 C1.96114351 77.45776145 1.97978948 80.38510292 2 83.3125 C2.02648624 87.18359079 2.04650748 91.05463455 2.0625 94.92578125 C2.07079834 95.82049637 2.07909668 96.71521149 2.08764648 97.63703918 C2.09617637 99.75821018 2.05345722 101.87948557 2 104 C1 105 1 105 -0.94946289 105.11352539 C-1.7821167 105.10828857 -2.61477051 105.10305176 -3.47265625 105.09765625 C-4.37177734 105.09443359 -5.27089844 105.09121094 -6.19726562 105.08789062 C-7.61555664 105.07532227 -7.61555664 105.07532227 -9.0625 105.0625 C-10.01189453 105.05798828 -10.96128906 105.05347656 -11.93945312 105.04882812 C-14.29303065 105.0370011 -16.64648477 105.02052025 -19 105 C-20.13788734 102.72422532 -20.12342063 101.48966576 -20.12025452 98.96310425 C-20.12162918 98.11893951 -20.12300385 97.27477478 -20.12442017 96.4050293 C-20.12082489 95.477146 -20.11722961 94.5492627 -20.11352539 93.59326172 C-20.11367142 92.61761261 -20.11381744 91.6419635 -20.1139679 90.63674927 C-20.11326935 87.40103966 -20.10547966 84.1653871 -20.09765625 80.9296875 C-20.09579186 78.69052156 -20.09436806 76.45135521 -20.09336853 74.21218872 C-20.08954498 68.31027099 -20.07971607 62.40837776 -20.06866455 56.50646973 C-20.05844694 50.48738944 -20.05387016 44.4683052 -20.04882812 38.44921875 C-20.03809367 26.63280172 -20.02101918 14.81640289 -20 3 C-17.64341603 1.82170801 -16.47426764 1.95585628 -13.8671875 2.12109375 C-13.06152344 2.16943359 -12.25585938 2.21777344 -11.42578125 2.26757812 C-10.58402344 2.32365234 -9.74226562 2.37972656 -8.875 2.4375 C-7.60076172 2.51581055 -7.60076172 2.51581055 -6.30078125 2.59570312 C-4.20020876 2.72551378 -2.10005809 2.8621174 0 3 C0 2.01 0 1.02 0 0 Z " fill="#00322D" transform="translate(760,465)"/>
<path d="M0 0 C0.86625 0.5775 1.7325 1.155 2.625 1.75 C10.61924613 9.32349633 13.97589293 18.3897204 14.40234375 29.20727539 C14.58401015 40.73173739 12.10137037 50.42635243 4 59 C-3.96405816 66.86732871 -13.50967364 70.1206736 -24.625 70.4375 C-36.51097305 69.98034719 -47.12145533 66.3449416 -55.36328125 57.44921875 C-63.64854406 46.7404787 -65.14209568 36.19899217 -64 23 C-61.93368312 12.36092798 -56.80412779 4.60437946 -48.1875 -1.875 C-33.10657101 -11.63458017 -14.39804797 -10.25658698 0 0 Z M-38 15 C-43.6185434 22.24496385 -43.85446028 29.06700611 -43 38 C-41.41669095 42.85912088 -39.02941844 46.04240145 -35.3125 49.5 C-29.5993523 52.08708575 -23.81865982 52.8717514 -17.75 51 C-13.41959069 49.10270099 -10.5668677 45.90803388 -8 42 C-5.8174021 35.45220629 -5.698266 26.77673298 -8.625 20.4375 C-11.1453053 16.2429919 -14.61199951 13.19400025 -19 11 C-26.40751496 10.31432714 -32.06127704 10.29851099 -38 15 Z " fill="#00312C" transform="translate(492,502)"/>
<path d="M0 0 C0.74290283 0.00161133 1.48580566 0.00322266 2.2512207 0.00488281 C11.18284499 0.20235234 18.63417449 2.91401763 25.75 8.375 C26.71679688 9.096875 27.68359375 9.81875 28.6796875 10.5625 C31.97372591 13.32078243 33.7877872 16.57247882 35.5625 20.4375 C35.86091797 21.04916016 36.15933594 21.66082031 36.46679688 22.29101562 C40.81981409 31.3802728 41.24243575 42.0769142 38.5625 51.8125 C36.08362938 58.81850993 32.27486054 64.40262551 26.75 69.375 C26.028125 70.055625 25.30625 70.73625 24.5625 71.4375 C14.97532412 78.04199894 3.27645405 79.8644906 -8.08984375 77.87890625 C-17.57834971 75.52341459 -26.2783314 71.3520797 -32.25 63.375 C-38.49119643 51.97592362 -40.17584185 39.80612266 -37.56640625 27.02734375 C-33.6637145 15.5135934 -25.93769989 7.8126017 -15.25 2.375 C-10.05277257 0.60882892 -5.42982124 -0.01234471 0 0 Z M-13.25 24.375 C-17.25820088 29.62993779 -18.50274073 35.85428912 -18.25 42.375 C-17.13417955 48.50707522 -14.79588643 53.13217266 -10.25 57.375 C-4.97956807 60.24978105 -0.19173269 60.86771659 5.75 60.125 C11.10086321 58.1184263 14.99087769 54.8903805 17.828125 49.98046875 C20.0621526 43.66650091 20.10504866 36.06405085 17.79296875 29.76953125 C14.90764801 24.88738537 11.1987729 21.19125763 5.75 19.375 C-1.71546661 18.53076306 -7.68398092 18.97963716 -13.25 24.375 Z " fill="#00312D" transform="translate(638.25,493.625)"/>
<path d="M0 0 C5.41386057 4.23915497 8.45291309 10.26462216 10.1875 16.8125 C10.57647963 20.3284964 10.70124877 23.84052234 10.8125 27.375 C10.86942017 28.91317383 10.86942017 28.91317383 10.92749023 30.48242188 C11.35879755 43.58790507 11.27870082 56.70203124 11.1875 69.8125 C7.09746141 70.96232602 3.15572949 70.92344256 -1.0625 70.875 C-1.80757812 70.87048828 -2.55265625 70.86597656 -3.3203125 70.86132812 C-5.1510764 70.84959246 -6.98179873 70.8316585 -8.8125 70.8125 C-9.4725 69.1625 -10.1325 67.5125 -10.8125 65.8125 C-11.823125 66.616875 -12.83375 67.42125 -13.875 68.25 C-17.45045162 70.84238448 -20.40567472 71.37181747 -24.8125 71.8125 C-25.1425 72.4725 -25.4725 73.1325 -25.8125 73.8125 C-34.91079904 73.05212342 -42.72564954 71.93296176 -49.8125 65.8125 C-54.56558635 60.09119236 -56.20684294 54.54673483 -56.0859375 47.18359375 C-55.44179525 41.59796024 -52.72649691 37.37233396 -48.6875 33.5625 C-40.7852861 27.53869018 -31.85492165 26.06095789 -22.1875 25.0625 C-21.08792969 24.93746094 -19.98835937 24.81242188 -18.85546875 24.68359375 C-16.17560816 24.38065299 -13.49503666 24.0905561 -10.8125 23.8125 C-11.04110058 22.35065942 -11.29620392 20.89294581 -11.5625 19.4375 C-11.70171875 18.62539063 -11.8409375 17.81328125 -11.984375 16.9765625 C-12.62753987 14.66275521 -12.62753987 14.66275521 -14.75415039 13.54223633 C-19.39600185 11.89658409 -24.17047784 12.21857709 -28.75 13.875 C-31.56728101 16.1897641 -31.56728101 16.1897641 -32.8125 22.8125 C-39.0825 22.8125 -45.3525 22.8125 -51.8125 22.8125 C-53.59117131 19.25515738 -51.92119548 15.47601549 -50.8125 11.8125 C-48.16538354 5.24765119 -43.64354986 0.85109819 -37.44140625 -2.44921875 C-25.58635725 -7.46955897 -10.9895731 -6.96555383 0 0 Z M-32.625 41.9375 C-34.78496695 44.77631371 -35.22060759 45.56637226 -35.4375 48.9375 C-35.20874343 52.74594825 -35.20874343 52.74594825 -33.109375 54.53125 C-28.92716419 56.86418392 -24.46115268 56.31105116 -19.8125 55.8125 C-15.49128929 54.26921046 -13.20420151 52.69311991 -10.8125 48.8125 C-10.24020132 46.00366363 -10.24020132 46.00366363 -10.125 43.0625 C-10.02638672 41.58523438 -10.02638672 41.58523438 -9.92578125 40.078125 C-9.88839844 39.33046875 -9.85101562 38.5828125 -9.8125 37.8125 C-21.77876669 37.59885966 -21.77876669 37.59885966 -32.625 41.9375 Z " fill="#00302C" transform="translate(872.8125,499.1875)"/>
<path d="M0 0 C1.43609916 6.82147102 1.80991127 14.21283273 0 21 C-1.47726562 20.75636719 -1.47726562 20.75636719 -2.984375 20.5078125 C-7.08512325 19.9234662 -11.11370502 19.8518491 -15.25 19.875 C-16.30960937 19.86919922 -16.30960937 19.86919922 -17.390625 19.86328125 C-20.52989304 19.86922683 -23.00025549 20.00008516 -26 21 C-26 47.73 -26 74.46 -26 102 C-29.42770176 102.68554035 -31.85457123 103.12324755 -35.20703125 103.09765625 C-35.95791016 103.09443359 -36.70878906 103.09121094 -37.48242188 103.08789062 C-38.63581055 103.07532227 -38.63581055 103.07532227 -39.8125 103.0625 C-40.99489258 103.05573242 -40.99489258 103.05573242 -42.20117188 103.04882812 C-44.13414761 103.03711312 -46.06708393 103.01917998 -48 103 C-49.2063665 99.38090049 -49.13189056 96.08176757 -49.11352539 92.31567383 C-49.11367142 91.5349501 -49.11381744 90.75422638 -49.1139679 89.94984436 C-49.11327114 87.36887841 -49.10548982 84.7879846 -49.09765625 82.20703125 C-49.09579123 80.41769958 -49.09436772 78.6283674 -49.09336853 76.83903503 C-49.08954999 72.12902416 -49.07972533 67.41904411 -49.06866455 62.70904541 C-49.05843621 57.90303972 -49.05386786 53.09702906 -49.04882812 48.29101562 C-49.03810249 38.86066354 -49.02103399 29.43033433 -49 20 C-49.66 20.33 -50.32 20.66 -51 21 C-51 20.34 -51 19.68 -51 19 C-51.84256348 19.24447876 -51.84256348 19.24447876 -52.70214844 19.49389648 C-55.13553181 20.02985098 -57.27622228 20.11361396 -59.765625 20.09765625 C-60.65507812 20.09443359 -61.54453125 20.09121094 -62.4609375 20.08789062 C-63.38132812 20.07951172 -64.30171875 20.07113281 -65.25 20.0625 C-66.18585938 20.05798828 -67.12171875 20.05347656 -68.0859375 20.04882812 C-70.39065247 20.03706938 -72.69533446 20.01913468 -75 20 C-75 13.73 -75 7.46 -75 1 C-65.36886979 0.86954483 -55.73773882 0.73914626 -46.10660648 0.60884857 C-41.63495397 0.54835018 -37.1633018 0.48782654 -32.69165039 0.42724609 C-28.37988297 0.36883262 -24.06811467 0.31048429 -19.75634575 0.25218201 C-18.10763963 0.22987714 -16.45893383 0.20754841 -14.81022835 0.18519592 C-12.50898445 0.15400058 -10.20773944 0.12288849 -7.90649414 0.09179688 C-6.5941127 0.07403198 -5.28173126 0.05626709 -3.92958069 0.03796387 C-1 0 -1 0 0 0 Z " fill="#00322E" transform="translate(439,467)"/>
<path d="M0 0 C0.83265381 0.00523682 1.66530762 0.01047363 2.52319336 0.01586914 C3.42231445 0.0190918 4.32143555 0.02231445 5.24780273 0.02563477 C6.66609375 0.03820312 6.66609375 0.03820312 8.11303711 0.05102539 C9.06243164 0.05553711 10.01182617 0.06004883 10.98999023 0.06469727 C13.34356776 0.07652429 15.69702188 0.09300514 18.05053711 0.11352539 C19.19719678 4.11332142 18.95050182 7.75964424 18.61303711 11.86352539 C18.56083008 12.5609082 18.50862305 13.25829102 18.45483398 13.97680664 C18.32579639 15.68948742 18.18894097 17.40157605 18.05053711 19.11352539 C19.33831055 19.10192383 20.62608398 19.09032227 21.95288086 19.07836914 C23.63126483 19.06899269 25.30965037 19.05989234 26.98803711 19.05102539 C28.26324219 19.03845703 28.26324219 19.03845703 29.56420898 19.02563477 C30.3730957 19.02241211 31.18198242 19.01918945 32.01538086 19.01586914 C32.76424561 19.01063232 33.51311035 19.00539551 34.28466797 19 C36.05053711 19.11352539 36.05053711 19.11352539 37.05053711 20.11352539 C37.12384042 22.97821864 37.14271542 25.81246213 37.11303711 28.67602539 C37.09241211 31.46040039 37.07178711 34.24477539 37.05053711 37.11352539 C31.11053711 37.11352539 25.17053711 37.11352539 19.05053711 37.11352539 C19.02340045 41.25940335 19.00363167 45.40510106 18.98803711 49.55102539 C18.97546875 51.29802734 18.97546875 51.29802734 18.96264648 53.08032227 C18.94046724 60.95395297 19.1315075 68.43740693 21.05053711 76.11352539 C26.33053711 76.11352539 31.61053711 76.11352539 37.05053711 76.11352539 C37.05053711 81.72352539 37.05053711 87.33352539 37.05053711 93.11352539 C27.46864189 97.904473 20.12356232 97.20698996 10.05053711 94.11352539 C4.12010478 91.40170851 1.15535246 87.54618835 -1.12646484 81.54443359 C-3.04275482 73.55581803 -2.63932319 65.16193061 -2.69946289 56.98852539 C-2.72765992 55.05881151 -2.75759248 53.12912217 -2.78930664 51.19946289 C-2.86272893 46.50419472 -2.91257408 41.8092169 -2.94946289 37.11352539 C-3.73192383 37.12512695 -4.51438477 37.13672852 -5.32055664 37.14868164 C-6.3324707 37.15770508 -7.34438477 37.16672852 -8.38696289 37.17602539 C-9.39629883 37.18762695 -10.40563477 37.19922852 -11.44555664 37.21118164 C-13.94946289 37.11352539 -13.94946289 37.11352539 -14.94946289 36.11352539 C-15.04927503 33.43621159 -15.08826164 30.79048365 -15.07446289 28.11352539 C-15.07833008 27.36329102 -15.08219727 26.61305664 -15.08618164 25.84008789 C-15.07607342 20.24013592 -15.07607342 20.24013592 -13.94946289 19.11352539 C-11.9298209 19.04108486 -9.90779166 19.02975351 -7.88696289 19.05102539 C-6.22987305 19.06456055 -6.22987305 19.06456055 -4.53930664 19.07836914 C-3.6846582 19.0899707 -2.83000977 19.10157227 -1.94946289 19.11352539 C-2.05774414 17.79288086 -2.05774414 17.79288086 -2.16821289 16.44555664 C-2.26102539 15.28411133 -2.35383789 14.12266602 -2.44946289 12.92602539 C-2.54227539 11.7774707 -2.63508789 10.62891602 -2.73071289 9.44555664 C-2.91443986 6.64700127 -3.07237906 3.91498972 -2.94946289 1.11352539 C-1.94946289 0.11352539 -1.94946289 0.11352539 0 0 Z " fill="#00312C" transform="translate(693.949462890625,475.886474609375)"/>
<path d="M0 0 C0.83265381 0.00523682 1.66530762 0.01047363 2.52319336 0.01586914 C3.42231445 0.0190918 4.32143555 0.02231445 5.24780273 0.02563477 C6.66609375 0.03820312 6.66609375 0.03820312 8.11303711 0.05102539 C9.06243164 0.05553711 10.01182617 0.06004883 10.98999023 0.06469727 C13.34353242 0.07652411 15.69704243 0.09446018 18.05053711 0.11352539 C18.54553711 9.51852539 18.54553711 9.51852539 19.05053711 19.11352539 C24.33053711 19.11352539 29.61053711 19.11352539 35.05053711 19.11352539 C35.88259531 24.8339255 36.17090375 30.33592655 36.05053711 36.11352539 C32.43186152 37.31975059 29.1254746 37.22169457 25.36303711 37.17602539 C24.31019531 37.16925781 24.31019531 37.16925781 23.23608398 37.16235352 C21.50753173 37.15059466 19.77902345 37.13265993 18.05053711 37.11352539 C18.14469104 41.40059111 18.25091542 45.6871441 18.36791992 49.97363281 C18.40600138 51.42928057 18.44088911 52.88501576 18.47241211 54.34082031 C18.51851966 56.44375687 18.57643258 58.54610214 18.63647461 60.64868164 C18.66789551 61.91075439 18.69931641 63.17282715 18.73168945 64.47314453 C19.07253346 68.36466446 19.74690868 71.44153247 21.05053711 75.11352539 C25.31213093 77.2443223 31.45817413 76.15854856 36.05053711 76.11352539 C36.05053711 81.72352539 36.05053711 87.33352539 36.05053711 93.11352539 C26.89004923 96.77772054 18.30849864 96.9084259 9.11303711 93.36743164 C4.0341537 90.90461102 1.52114262 87.08536375 -0.94946289 82.11352539 C-5.50342067 68.45165206 -3.0493372 51.31368838 -1.94946289 37.11352539 C-3.23143555 37.13092773 -3.23143555 37.13092773 -4.53930664 37.14868164 C-5.6440332 37.15770508 -6.74875977 37.16672852 -7.88696289 37.17602539 C-8.98911133 37.18762695 -10.09125977 37.19922852 -11.22680664 37.21118164 C-13.94946289 37.11352539 -13.94946289 37.11352539 -14.94946289 36.11352539 C-15.04927503 33.43621159 -15.08826164 30.79048365 -15.07446289 28.11352539 C-15.07833008 27.36329102 -15.08219727 26.61305664 -15.08618164 25.84008789 C-15.07607342 20.24013592 -15.07607342 20.24013592 -13.94946289 19.11352539 C-12.09658788 19.04126037 -10.24112411 19.02971319 -8.38696289 19.05102539 C-7.37504883 19.06004883 -6.36313477 19.06907227 -5.32055664 19.07836914 C-4.14686523 19.09577148 -4.14686523 19.09577148 -2.94946289 19.11352539 C-2.96106445 17.82575195 -2.97266602 16.53797852 -2.98461914 15.21118164 C-2.99399559 13.53279767 -3.00309594 11.85441213 -3.01196289 10.17602539 C-3.0203418 9.32588867 -3.0287207 8.47575195 -3.03735352 7.59985352 C-3.04057617 6.7909668 -3.04379883 5.98208008 -3.04711914 5.14868164 C-3.05235596 4.39981689 -3.05759277 3.65095215 -3.06298828 2.87939453 C-2.90030902 0.34894488 -2.52250103 0.1468958 0 0 Z " fill="#00312C" transform="translate(901.949462890625,475.886474609375)"/>
<path d="M0 0 C1.43609916 6.82147102 1.80991127 14.21283273 0 21 C-1.47726562 20.75636719 -1.47726562 20.75636719 -2.984375 20.5078125 C-7.08512325 19.9234662 -11.11370502 19.8518491 -15.25 19.875 C-16.30960937 19.86919922 -16.30960937 19.86919922 -17.390625 19.86328125 C-20.52989304 19.86922683 -23.00025549 20.00008516 -26 21 C-26 47.73 -26 74.46 -26 102 C-29.42770176 102.68554035 -31.85457123 103.12324755 -35.20703125 103.09765625 C-35.95791016 103.09443359 -36.70878906 103.09121094 -37.48242188 103.08789062 C-38.63581055 103.07532227 -38.63581055 103.07532227 -39.8125 103.0625 C-40.99489258 103.05573242 -40.99489258 103.05573242 -42.20117188 103.04882812 C-44.13414761 103.03711312 -46.06708393 103.01917998 -48 103 C-49.2063665 99.38090049 -49.13189056 96.08176757 -49.11352539 92.31567383 C-49.11367142 91.5349501 -49.11381744 90.75422638 -49.1139679 89.94984436 C-49.11327114 87.36887841 -49.10548982 84.7879846 -49.09765625 82.20703125 C-49.09579123 80.41769958 -49.09436772 78.6283674 -49.09336853 76.83903503 C-49.08954999 72.12902416 -49.07972533 67.41904411 -49.06866455 62.70904541 C-49.05843621 57.90303972 -49.05386786 53.09702906 -49.04882812 48.29101562 C-49.03810249 38.86066354 -49.02103399 29.43033433 -49 20 C-49.66 20.33 -50.32 20.66 -51 21 C-51 20.34 -51 19.68 -51 19 C-51.495 19.185625 -51.99 19.37125 -52.5 19.5625 C-56.15081689 20.20139296 -59.33964724 19.54905291 -63 19 C-59.5233662 16.85663839 -56.78770805 16.78722374 -52.75 16.875 C-51.67234375 16.89304687 -50.5946875 16.91109375 -49.484375 16.9296875 C-48.25460937 16.96449219 -48.25460937 16.96449219 -47 17 C-45.74859064 20.85491262 -45.86659391 24.70076289 -45.88647461 28.70605469 C-45.88632858 29.47717087 -45.88618256 30.24828705 -45.8860321 31.04277039 C-45.88672751 33.5858341 -45.89450251 36.12882412 -45.90234375 38.671875 C-45.90420925 40.43735718 -45.90563253 42.20283987 -45.90663147 43.96832275 C-45.91044625 48.61091546 -45.92026768 53.2534768 -45.93133545 57.89605713 C-45.9415719 62.63512752 -45.94613388 67.37420299 -45.95117188 72.11328125 C-45.96189087 81.40887016 -45.97947928 90.70442756 -46 100 C-40.39 100 -34.78 100 -29 100 C-29.00523682 97.62780273 -29.01047363 95.25560547 -29.01586914 92.81152344 C-29.03243406 84.97644879 -29.04348289 77.14137337 -29.05181217 69.30628586 C-29.0570322 64.55558089 -29.06411394 59.80489386 -29.07543945 55.05419922 C-29.08629951 50.47009352 -29.09228347 45.88600508 -29.09487724 41.30188751 C-29.09672585 39.55238829 -29.10033568 37.80289002 -29.10573006 36.05339813 C-29.11298183 33.60426284 -29.11398919 31.15519898 -29.11352539 28.70605469 C-29.11712067 27.98172745 -29.12071594 27.25740021 -29.12442017 26.51112366 C-29.11739808 23.08751172 -28.83901858 20.3560743 -28 17 C-19.42 17 -10.84 17 -2 17 C-2 12.38 -2 7.76 -2 3 C-25.43 3 -48.86 3 -73 3 C-73 7.62 -73 12.24 -73 17 C-72.34 17 -71.68 17 -71 17 C-71 17.66 -71 18.32 -71 19 C-71.99 19 -72.98 19 -74 19 C-74 13.06 -74 7.12 -74 1 C-64.49925363 0.86954385 -54.99850647 0.73914508 -45.49775791 0.60884857 C-41.08663954 0.54835067 -36.67552153 0.48782717 -32.2644043 0.42724609 C-28.01099159 0.36883181 -23.75757799 0.31048357 -19.50416374 0.25218201 C-17.8777863 0.22987747 -16.2514092 0.20754874 -14.62503242 0.18519592 C-12.35492157 0.15399972 -10.08480957 0.12288793 -7.81469727 0.09179688 C-5.87277245 0.06514954 -5.87277245 0.06514954 -3.89161682 0.03796387 C-1 0 -1 0 0 0 Z " fill="#021211" transform="translate(439,467)"/>
<path d="M0 0 C0.33 0 0.66 0 1 0 C2.0574223 11.79432563 1.83375798 23.19911778 1 35 C0.34 34.67 -0.32 34.34 -1 34 C-1 24.43 -1 14.86 -1 5 C-6.61 5 -12.22 5 -18 5 C-17.67 5.66 -17.34 6.32 -17 7 C-16.90652508 9.99036723 -16.87427267 12.95730478 -16.88647461 15.94775391 C-16.88632858 16.87463516 -16.88618256 17.80151642 -16.8860321 18.75648499 C-16.88673054 21.8298677 -16.89451973 24.90319033 -16.90234375 27.9765625 C-16.90420818 30.10362719 -16.90563196 32.2306923 -16.90663147 34.35775757 C-16.91045472 39.96375712 -16.92028338 45.56973088 -16.93133545 51.17572021 C-16.9415537 56.89318493 -16.94612998 62.61065379 -16.95117188 68.328125 C-16.9619058 79.55209468 -16.97897993 90.7760452 -17 102 C-11.72 102 -6.44 102 -1 102 C-1.01047363 100.77893555 -1.02094727 99.55787109 -1.03173828 98.29980469 C-1.06795151 93.76744521 -1.09090535 89.23509852 -1.10986328 84.70263672 C-1.11991783 82.74135182 -1.13356333 80.78008189 -1.15087891 78.81884766 C-1.17515113 75.99898582 -1.18648859 73.17932228 -1.1953125 70.359375 C-1.21079636 69.04510529 -1.21079636 69.04510529 -1.22659302 67.70428467 C-1.22674408 66.88373596 -1.22689514 66.06318726 -1.22705078 65.21777344 C-1.231492 64.49829529 -1.23593323 63.77881714 -1.24050903 63.03753662 C-0.96199823 60.67805788 -0.16589346 59.05358654 1 57 C1.16782889 63.67505193 1.32779181 70.35025846 1.48217773 77.02563477 C1.5356848 79.29846508 1.59102056 81.57125308 1.64819336 83.84399414 C1.72986216 87.10293449 1.80504251 90.36196836 1.87890625 93.62109375 C1.90594131 94.64400009 1.93297638 95.66690643 1.96083069 96.72080994 C1.98092697 97.66170975 2.00102325 98.60260956 2.02172852 99.57202148 C2.04171402 100.40475082 2.06169952 101.23748016 2.08229065 102.09544373 C2 104 2 104 1 105 C-0.4887186 105.08669432 -1.981445 105.10703494 -3.47265625 105.09765625 C-4.37177734 105.09443359 -5.27089844 105.09121094 -6.19726562 105.08789062 C-7.61555664 105.07532227 -7.61555664 105.07532227 -9.0625 105.0625 C-10.01189453 105.05798828 -10.96128906 105.05347656 -11.93945312 105.04882812 C-14.29303065 105.0370011 -16.64648477 105.02052025 -19 105 C-20.13788734 102.72422532 -20.12342063 101.48966576 -20.12025452 98.96310425 C-20.12162918 98.11893951 -20.12300385 97.27477478 -20.12442017 96.4050293 C-20.12082489 95.477146 -20.11722961 94.5492627 -20.11352539 93.59326172 C-20.11367142 92.61761261 -20.11381744 91.6419635 -20.1139679 90.63674927 C-20.11326935 87.40103966 -20.10547966 84.1653871 -20.09765625 80.9296875 C-20.09579186 78.69052156 -20.09436806 76.45135521 -20.09336853 74.21218872 C-20.08954498 68.31027099 -20.07971607 62.40837776 -20.06866455 56.50646973 C-20.05844694 50.48738944 -20.05387016 44.4683052 -20.04882812 38.44921875 C-20.03809367 26.63280172 -20.02101918 14.81640289 -20 3 C-17.64341603 1.82170801 -16.47426764 1.95585628 -13.8671875 2.12109375 C-13.06152344 2.16943359 -12.25585938 2.21777344 -11.42578125 2.26757812 C-10.58402344 2.32365234 -9.74226562 2.37972656 -8.875 2.4375 C-7.60076172 2.51581055 -7.60076172 2.51581055 -6.30078125 2.59570312 C-4.20020876 2.72551378 -2.10005809 2.8621174 0 3 C0 2.01 0 1.02 0 0 Z " fill="#021A18" transform="translate(760,465)"/>
<path d="M0 0 C0.33 0 0.66 0 1 0 C1.33 4.29 1.66 8.58 2 13 C4.6915625 12.9690625 4.6915625 12.9690625 7.4375 12.9375 C9.29166122 12.9161878 11.14712498 12.92773498 13 13 C15.1608445 15.1608445 14.16202312 20.21511594 14.17578125 23.22265625 C14.19899702 25.14258888 14.22311504 27.06251077 14.24804688 28.98242188 C14.28304433 32.01496368 14.31243154 35.04711563 14.32592773 38.07983398 C14.34149011 41.00292736 14.38177324 43.92487015 14.42578125 46.84765625 C14.42387283 47.74380142 14.42196442 48.63994659 14.41999817 49.56324768 C14.5496218 56.2999957 15.96594018 62.06381308 20.9375 66.875 C26.71930633 70.02871254 31.33051014 70.25067616 37.8125 70.125 C38.69615234 70.11597656 39.57980469 70.10695313 40.49023438 70.09765625 C42.66027359 70.07419637 44.83017247 70.03832865 47 70 C47 65.71 47 61.42 47 57 C45.2675 57.0825 43.535 57.165 41.75 57.25 C36.36914062 57.24309261 36.36914062 57.24309261 33.4375 55.3125 C30.30524004 50.27364702 29.71060019 45.97142578 29.76953125 40.109375 C29.77021858 38.99154633 29.77021858 38.99154633 29.7709198 37.85113525 C29.77392879 36.28452959 29.78177436 34.71792655 29.79418945 33.15136719 C29.81254549 30.74403399 29.81469828 28.33708367 29.81445312 25.9296875 C29.81936506 24.40624665 29.82519196 22.88280842 29.83203125 21.359375 C29.83314407 20.63651306 29.8342569 19.91365112 29.83540344 19.16888428 C29.8839159 14.1160841 29.8839159 14.1160841 31 13 C33.69654854 12.92680379 36.36691458 12.90757463 39.0625 12.9375 C40.20041992 12.94426758 40.20041992 12.94426758 41.36132812 12.95117188 C43.24091871 12.9629932 45.12046899 12.98092922 47 13 C43.47320901 15.35119399 41.97120515 15.21443452 37.8125 15.125 C36.18248047 15.09792969 36.18248047 15.09792969 34.51953125 15.0703125 C33.27236328 15.03550781 33.27236328 15.03550781 32 15 C32.09415393 19.28706572 32.20037831 23.57361871 32.31738281 27.86010742 C32.35546427 29.31575518 32.390352 30.77149037 32.421875 32.22729492 C32.46798255 34.33023148 32.52589547 36.43257675 32.5859375 38.53515625 C32.6173584 39.797229 32.6487793 41.05930176 32.68115234 42.35961914 C33.02199635 46.25113907 33.69637157 49.32800708 35 53 C39.26159382 55.13079691 45.40763702 54.04502317 50 54 C50 59.61 50 65.22 50 71 C40.83951212 74.66419515 32.25796153 74.79490051 23.0625 71.25390625 C17.98361659 68.79108563 15.47060551 64.97183835 13 60 C8.44604222 46.33812666 10.90012569 29.20016299 12 15 C8.04 15 4.08 15 0 15 C0 10.05 0 5.1 0 0 Z " fill="#051816" transform="translate(888,498)"/>
<path d="M0 0 C0.83265381 0.00523682 1.66530762 0.01047363 2.52319336 0.01586914 C3.42231445 0.0190918 4.32143555 0.02231445 5.24780273 0.02563477 C6.66609375 0.03820312 6.66609375 0.03820312 8.11303711 0.05102539 C9.06243164 0.05553711 10.01182617 0.06004883 10.98999023 0.06469727 C13.34356776 0.07652429 15.69702188 0.09300514 18.05053711 0.11352539 C19.19740727 4.11405564 18.94985427 7.7615261 18.61303711 11.86352539 C18.33459961 15.45227539 18.33459961 15.45227539 18.05053711 19.11352539 C23.99053711 19.11352539 29.93053711 19.11352539 36.05053711 19.11352539 C36.05053711 22.41352539 36.05053711 25.71352539 36.05053711 29.11352539 C35.72053711 29.11352539 35.39053711 29.11352539 35.05053711 29.11352539 C35.05053711 26.47352539 35.05053711 23.83352539 35.05053711 21.11352539 C29.11053711 21.11352539 23.17053711 21.11352539 17.05053711 21.11352539 C17.05053711 14.84352539 17.05053711 8.57352539 17.05053711 2.11352539 C11.44053711 2.11352539 5.83053711 2.11352539 0.05053711 2.11352539 C0.05053711 8.38352539 0.05053711 14.65352539 0.05053711 21.11352539 C-3.90946289 21.11352539 -7.86946289 21.11352539 -11.94946289 21.11352539 C-11.94946289 25.73352539 -11.94946289 30.35352539 -11.94946289 35.11352539 C-9.25790039 35.08258789 -9.25790039 35.08258789 -6.51196289 35.05102539 C-4.65780167 35.02971319 -2.80233791 35.04126037 -0.94946289 35.11352539 C1.18465599 37.24764427 0.21238303 42.11969526 0.22631836 45.08227539 C0.24953871 46.95207804 0.27365691 48.82186971 0.29858398 50.69165039 C0.33354322 53.64289444 0.36294649 56.59374121 0.37646484 59.54516602 C0.39205848 62.39136446 0.43236509 65.23639116 0.47631836 68.08227539 C0.47440994 68.9513855 0.47250153 69.82049561 0.47053528 70.71594238 C0.61642617 78.12033968 2.48252952 84.79572515 7.80053711 90.17602539 C8.91428711 91.13508789 8.91428711 91.13508789 10.05053711 92.11352539 C6.00618879 91.39132033 3.21991548 89.75332745 0.8112793 86.37573242 C-3.37200743 77.13393231 -2.62633653 66.92690821 -2.69946289 56.98852539 C-2.72765992 55.05881151 -2.75759248 53.12912217 -2.78930664 51.19946289 C-2.86272893 46.50419472 -2.91257408 41.8092169 -2.94946289 37.11352539 C-3.73192383 37.12512695 -4.51438477 37.13672852 -5.32055664 37.14868164 C-6.3324707 37.15770508 -7.34438477 37.16672852 -8.38696289 37.17602539 C-9.39629883 37.18762695 -10.40563477 37.19922852 -11.44555664 37.21118164 C-13.94946289 37.11352539 -13.94946289 37.11352539 -14.94946289 36.11352539 C-15.04927503 33.43621159 -15.08826164 30.79048365 -15.07446289 28.11352539 C-15.07833008 27.36329102 -15.08219727 26.61305664 -15.08618164 25.84008789 C-15.07607342 20.24013592 -15.07607342 20.24013592 -13.94946289 19.11352539 C-11.9298209 19.04108486 -9.90779166 19.02975351 -7.88696289 19.05102539 C-6.22987305 19.06456055 -6.22987305 19.06456055 -4.53930664 19.07836914 C-3.6846582 19.0899707 -2.83000977 19.10157227 -1.94946289 19.11352539 C-2.05774414 17.79288086 -2.05774414 17.79288086 -2.16821289 16.44555664 C-2.26102539 15.28411133 -2.35383789 14.12266602 -2.44946289 12.92602539 C-2.54227539 11.7774707 -2.63508789 10.62891602 -2.73071289 9.44555664 C-2.91443986 6.64700127 -3.07237906 3.91498972 -2.94946289 1.11352539 C-1.94946289 0.11352539 -1.94946289 0.11352539 0 0 Z " fill="#05201E" transform="translate(693.949462890625,475.886474609375)"/>
<path d="M0 0 C6.93 0 13.86 0 21 0 C21.77308603 3.09234414 22.12423285 5.09223753 22.12025452 8.16351318 C22.12162918 8.98518478 22.12300385 9.80685638 22.12442017 10.65342712 C22.12082489 11.54606766 22.11722961 12.43870819 22.11352539 13.35839844 C22.11367142 14.30507889 22.11381744 15.25175934 22.1139679 16.22712708 C22.11327153 19.3545664 22.10549198 22.48194608 22.09765625 25.609375 C22.09579109 27.77842171 22.09436765 29.94746883 22.09336853 32.11651611 C22.08955106 37.82441369 22.07972731 43.53228582 22.06866455 49.24017334 C22.0584339 55.06505997 22.05386736 60.88995072 22.04882812 66.71484375 C22.03810438 78.14324035 22.02103717 89.57161806 22 101 C18.77512671 101.66723822 15.7343516 102.18119614 12.4375 102.25 C11.69371094 102.27578125 10.94992187 102.3015625 10.18359375 102.328125 C8 102 8 102 4 99 C8.95 99 13.9 99 19 99 C19 66.99 19 34.98 19 2 C11.08 2.495 11.08 2.495 3 3 C3.01160156 4.73507812 3.02320313 6.47015625 3.03515625 8.2578125 C3.04453765 10.54687392 3.05363748 12.83593651 3.0625 15.125 C3.07087891 16.26710938 3.07925781 17.40921875 3.08789062 18.5859375 C3.09111328 19.69453125 3.09433594 20.803125 3.09765625 21.9453125 C3.10289307 22.96125488 3.10812988 23.97719727 3.11352539 25.02392578 C2.99652309 28.09114726 2.56776417 30.98633134 2 34 C1.67 34 1.34 34 1 34 C0.67 22.78 0.34 11.56 0 0 Z " fill="#021413" transform="translate(568,468)"/>
<path d="M0 0 C5.45241923 1.03855604 7.65791489 3.41070533 10.6796875 7.78515625 C15.97565913 16.66922699 16.15012385 25.88118521 16.09765625 35.96484375 C16.0962413 36.99815323 16.09482635 38.03146271 16.09336853 39.09608459 C16.08779839 42.3765866 16.07525141 45.65701883 16.0625 48.9375 C16.05748114 51.16992089 16.05291891 53.40234285 16.04882812 55.63476562 C16.03783875 61.08986731 16.0211305 66.54492867 16 72 C11 73 11 73 -4 73 C-4 59.14 -4 45.28 -4 31 C-3.67 31 -3.34 31 -3 31 C-3 43.87 -3 56.74 -3 70 C2.61 70 8.22 70 14 70 C13.93069898 63.50752826 13.842529 57.01567468 13.73754883 50.52368164 C13.70447944 48.31932484 13.67639271 46.11488703 13.65356445 43.91040039 C13.61968568 40.72507489 13.5673552 37.54047996 13.51171875 34.35546875 C13.50532883 33.38417526 13.4989389 32.41288177 13.49235535 31.41215515 C13.3016118 22.35258897 11.95750216 13.14900259 6 6 C4.0564652 4.24747599 2.04993142 2.63062727 0 1 C0 0.67 0 0.34 0 0 Z " fill="#07211F" transform="translate(793,497)"/>
<path d="M0 0 C6.93096386 -0.51130061 12.24959267 -0.14951442 18 4 C22.71764829 8.2734931 24.70930619 13.08630162 25.3359375 19.3671875 C25.43261172 28.04853231 24.9141377 33.97713626 18.75 40.3125 C13.09229777 43.78427182 7.73053362 45.8413167 1 45 C-5.14134761 42.98879844 -9.47882376 39.39390374 -13 34 C-16.20599064 27.54410104 -16.25360554 19.27776737 -14.2421875 12.4140625 C-12.49662984 8.71677895 -10.62971969 6.07412553 -7 4 C-8.03642434 6.71064826 -9.12189041 9.21755123 -10.54296875 11.75390625 C-13.32732797 17.95713014 -13.22537062 25.37935758 -11.05078125 31.8046875 C-8.83439578 36.06965639 -6.65870453 39.34357172 -2 41 C4.46730138 42.40982695 10.23576886 42.57382331 16 39 C19.81187712 35.52000273 21.83456392 32.13439661 22.23828125 26.92578125 C22.4579658 16.79819694 22.4579658 16.79819694 18 8 C13.83053104 4.03900449 9.97870565 1.88047403 4.25 1.375 C3.45078125 1.30023437 2.6515625 1.22546875 1.828125 1.1484375 C1.22484375 1.09945312 0.6215625 1.05046875 0 1 C0 0.67 0 0.34 0 0 Z " fill="#031917" transform="translate(462,511)"/>
<path d="M0 0 C0.66 0 1.32 0 2 0 C2.91938912 3.11515458 3.1049806 5.86366829 3.0625 9.10546875 C3.05476562 10.08966797 3.04703125 11.07386719 3.0390625 12.08789062 C3.01326693 14.13476874 2.98723001 16.18164383 2.9609375 18.22851562 C2.90272282 25.68484527 3.18702843 32.74811371 5 40 C10.28 40 15.56 40 21 40 C21 45.61 21 51.22 21 57 C12.55767398 61.22116301 7.75232577 61.13489445 -1.33984375 58.921875 C-4 58 -4 58 -5 56 C2.92 56 10.84 56 19 56 C19 51.71 19 47.42 19 43 C17.123125 43.0825 15.24625 43.165 13.3125 43.25 C9.43734658 43.23630688 7.37436224 43.18718112 3.875 41.4375 C-0.04802909 36.33756219 -0.24541785 30.55452272 -0.1953125 24.31640625 C-0.1924826 23.61603745 -0.18965271 22.91566864 -0.18673706 22.19407654 C-0.17564885 19.9833683 -0.15056703 17.77308329 -0.125 15.5625 C-0.11495546 14.05274028 -0.1058322 12.54297412 -0.09765625 11.03320312 C-0.07574714 7.35533403 -0.04129758 3.6777084 0 0 Z " fill="#061E1C" transform="translate(710,512)"/>
<path d="M0 0 C0.495 0.99 0.495 0.99 1 2 C-0.03898437 2.03738281 -1.07796875 2.07476562 -2.1484375 2.11328125 C-14.96477828 2.67191858 -25.52811438 3.95734534 -34.6875 13.81640625 C-42.66909723 23.69363282 -44.0164977 33.6765341 -43 46 C-41.76275107 53.58709674 -38.18163911 59.63957805 -34 66 C-34.99 66 -35.98 66 -37 66 C-45.33014808 55.90734843 -46.90848685 45.60955052 -46.19091797 32.97021484 C-45.20471784 22.79293223 -40.31415634 14.58178521 -32.67578125 7.99609375 C-22.27854726 0.17776552 -12.63706392 -0.4549343 0 0 Z " fill="#031715" transform="translate(474,494)"/>
<path d="M0 0 C0.87056734 2.41286875 1.18561853 3.55539942 0.1796875 5.96484375 C-2.55207223 10.09519903 -5.29292112 13.663629 -9 17 C-9.721875 17.680625 -10.44375 18.36125 -11.1875 19.0625 C-20.77467588 25.66699894 -32.47354595 27.4894906 -43.83984375 25.50390625 C-54.87982112 22.76326671 -63.94665898 17.58667916 -70 7.75 C-71 5 -71 5 -70 2 C-69.36384766 2.97839844 -69.36384766 2.97839844 -68.71484375 3.9765625 C-62.18484691 13.70697537 -55.61696384 19.79992413 -44.0625 22.75 C-32.26641499 23.71294572 -20.6638305 22.88983823 -10.86328125 15.59765625 C-5.71016272 11.1791542 -2.84188574 6.10479158 0 0 Z " fill="#061918" transform="translate(674,546)"/>
<path d="M0 0 C5.91036346 0.36185899 9.71028419 1.84337799 14 6 C20.19885354 13.94892565 21.33342146 21.6519729 21.625 31.5 C21.66222168 32.57427246 21.69944336 33.64854492 21.73779297 34.75537109 C22.14679272 47.24965367 22.061302 59.52970153 21 72 C18.54627652 69.54627652 18.74272465 68.86584529 18.71289062 65.49365234 C18.69947632 64.55862885 18.68606201 63.62360535 18.67224121 62.6602478 C18.66696411 61.6457254 18.66168701 60.631203 18.65625 59.5859375 C18.6416272 58.54233063 18.62700439 57.49872375 18.61193848 56.42349243 C18.56531623 53.07403424 18.53121524 49.72463511 18.5 46.375 C18.4587154 41.98676435 18.40489739 37.59893622 18.34375 33.2109375 C18.3384729 32.20856049 18.3331958 31.20618347 18.32775879 30.1734314 C18.21172408 21.92181275 17.53223255 14.55132802 12 8 C8.24121227 5.20797866 4.19403472 3.05957062 0 1 C0 0.67 0 0.34 0 0 Z " fill="#031D1C" transform="translate(862,496)"/>
<path d="M0 0 C-0.60328125 0.37511719 -1.2065625 0.75023437 -1.828125 1.13671875 C-8.02187231 5.10271501 -12.80462425 8.68208084 -15 16 C-15.16798262 18.70886941 -15.16798262 18.70886941 -15 21 C-13.205625 20.9690625 -13.205625 20.9690625 -11.375 20.9375 C-7.81995131 20.93117429 -4.49444376 21.30111125 -1 22 C-0.9071875 20.63875 -0.9071875 20.63875 -0.8125 19.25 C0.19673581 15.21305677 1.556883 14.21343236 5 12 C10.27607785 10.24130738 15.21842938 10.35215614 20.4375 12.25 C23.08539764 14.05832034 24.16180909 14.92663332 25 18 C24.625 20.25 24.625 20.25 24 22 C23.05598958 20.20963542 22.11197917 18.41927083 21.16796875 16.62890625 C20.00980201 14.67732013 20.00980201 14.67732013 17 14 C12.7744524 13.58852345 9.07509167 13.61113706 5.0625 15.0625 C2.24521899 17.3772641 2.24521899 17.3772641 1 24 C-5.27 24 -11.54 24 -18 24 C-19.77867131 20.44265738 -18.10869548 16.66351549 -17 13 C-14.30604298 6.31898658 -7.78801304 -2.33640391 0 0 Z " fill="#041D1A" transform="translate(839,498)"/>
<path d="M0 0 C0.33 0 0.66 0 1 0 C2.0574223 11.79432563 1.83375798 23.19911778 1 35 C0.34 34.67 -0.32 34.34 -1 34 C-1 24.43 -1 14.86 -1 5 C-6.61 5 -12.22 5 -18 5 C-18 23.48 -18 41.96 -18 61 C-18.33 61 -18.66 61 -19 61 C-19.495 32.29 -19.495 32.29 -20 3 C-17.64341603 1.82170801 -16.47426764 1.95585628 -13.8671875 2.12109375 C-13.06152344 2.16943359 -12.25585938 2.21777344 -11.42578125 2.26757812 C-10.58402344 2.32365234 -9.74226562 2.37972656 -8.875 2.4375 C-7.60076172 2.51581055 -7.60076172 2.51581055 -6.30078125 2.59570312 C-4.20020876 2.72551378 -2.10005809 2.8621174 0 3 C0 2.01 0 1.02 0 0 Z " fill="#020D0D" transform="translate(760,465)"/>
<path d="M0 0 C0.33 0 0.66 0 1 0 C1 4.62 1 9.24 1 14 C2.959375 13.979375 4.91875 13.95875 6.9375 13.9375 C8.95832876 13.91622812 10.98035801 13.92755947 13 14 C15.13411888 16.13411888 14.16184592 21.00616987 14.17578125 23.96875 C14.1990016 25.83855265 14.2231198 27.70834432 14.24804688 29.578125 C14.28300611 32.52936905 14.31240938 35.48021582 14.32592773 38.43164062 C14.34152137 41.27783907 14.38182798 44.12286577 14.42578125 46.96875 C14.42387283 47.83786011 14.42196442 48.70697021 14.41999817 49.60241699 C14.56588906 57.00681429 16.43199241 63.68219976 21.75 69.0625 C22.86375 70.0215625 22.86375 70.0215625 24 71 C19.95565169 70.27779494 17.16937838 68.63980206 14.76074219 65.26220703 C10.57745546 56.02040691 11.32312636 45.81338282 11.25 35.875 C11.22180297 33.94528612 11.19187041 32.01559678 11.16015625 30.0859375 C11.08673396 25.39066933 11.03688881 20.69569151 11 16 C7.37 16 3.74 16 0 16 C0 10.72 0 5.44 0 0 Z " fill="#021312" transform="translate(680,497)"/>
<path d="M0 0 C3.50659641 2.2869107 5.56254763 4.37328642 7.875 7.875 C8.94263391 13.83659657 8.94467324 19.58810758 8.75390625 25.625 C8.73029526 26.52371826 8.70668427 27.42243652 8.68235779 28.34838867 C8.60639464 31.19078078 8.52208485 34.03285273 8.4375 36.875 C8.3842117 38.81378694 8.3314719 40.75258903 8.27929688 42.69140625 C8.15087186 47.41946972 8.01496585 52.14726467 7.875 56.875 C7.545 56.875 7.215 56.875 6.875 56.875 C6.86620064 56.05267128 6.86620064 56.05267128 6.85722351 55.21372986 C6.79308563 49.48663572 6.70861435 43.76009294 6.61254883 38.03344727 C6.57937883 35.89875578 6.55132242 33.76397827 6.52856445 31.62915039 C6.49487283 28.55317669 6.44254897 25.47798574 6.38671875 22.40234375 C6.38032883 21.45415268 6.3739389 20.50596161 6.36735535 19.52903748 C6.24396396 13.91615753 5.62937205 9.81142287 2.875 4.875 C-1.05956142 2.25195905 -4.43460134 1.8108578 -9.125 1.875 C-13.30059068 3.34418931 -15.99424762 4.94992982 -18.125 8.875 C-18.84545367 12.02618325 -18.84545367 12.02618325 -19.125 14.875 C-19.455 14.875 -19.785 14.875 -20.125 14.875 C-20.61041424 7.71514002 -20.61041424 7.71514002 -18.5 4.0625 C-12.85597851 -1.13594085 -7.3239207 -2.63661145 0 0 Z " fill="#062A27" transform="translate(781.125,512.125)"/>
<path d="M0 0 C-0.71285156 0.4125 -1.42570313 0.825 -2.16015625 1.25 C-11.28145648 6.74978802 -17.94658427 12.29580343 -21.3515625 22.65625 C-22.97659086 31.03591433 -23.03817643 40.68158887 -21 49 C-21.99 48.67 -22.98 48.34 -24 48 C-27.26526936 39.18318013 -25.94126463 25.76656527 -22.265625 17.328125 C-18.28743271 10.01021572 -9.44292607 -2.9085806 0 0 Z " fill="#021817" transform="translate(625,498)"/>
<path d="M0 0 C0.83265381 0.00523682 1.66530762 0.01047363 2.52319336 0.01586914 C3.33280518 0.0183667 4.14241699 0.02086426 4.9765625 0.0234375 C6.01159912 0.0325415 7.04663574 0.04164551 8.11303711 0.05102539 C11.39241211 0.07165039 14.67178711 0.09227539 18.05053711 0.11352539 C18.38053711 7.04352539 18.71053711 13.97352539 19.05053711 21.11352539 C18.06053711 20.78352539 17.07053711 20.45352539 16.05053711 20.11352539 C16.05053711 14.17352539 16.05053711 8.23352539 16.05053711 2.11352539 C10.77053711 2.11352539 5.49053711 2.11352539 0.05053711 2.11352539 C-0.27946289 8.05352539 -0.60946289 13.99352539 -0.94946289 20.11352539 C-1.27946289 20.11352539 -1.60946289 20.11352539 -1.94946289 20.11352539 C-2.11837207 17.88452752 -2.28449976 15.65531877 -2.44946289 13.42602539 C-2.54227539 12.1846582 -2.63508789 10.94329102 -2.73071289 9.66430664 C-2.90754398 6.79395921 -3.07735716 3.9858175 -2.94946289 1.11352539 C-1.94946289 0.11352539 -1.94946289 0.11352539 0 0 Z " fill="#041B18" transform="translate(901.949462890625,475.886474609375)"/>
<path d="M0 0 C-2.20616172 2.20616172 -4.03871568 2.98755891 -6.875 4.25 C-11.37621983 6.45189542 -13.74314848 8.38817298 -16 13 C-17.74866408 18.88078125 -17.92159776 24.68400282 -15.3125 30.3125 C-11.92838655 36.27611251 -7.16363687 38.5828875 -1 41 C-1 41.33 -1 41.66 -1 42 C-7.3686465 41.73463973 -11.61715234 39.69658729 -16 35 C-19.53274183 29.16157513 -21.18760224 22.77055712 -20 16 C-17.83898487 9.03104588 -13.22675255 4.38763121 -6.953125 0.84375 C-4.5369476 -0.20003864 -2.60422993 -0.14467944 0 0 Z " fill="#031A19" transform="translate(837,528)"/>
<path d="M0 0 C-0.56589844 0.34933594 -1.13179687 0.69867187 -1.71484375 1.05859375 C-2.44832031 1.51363281 -3.18179688 1.96867188 -3.9375 2.4375 C-5.03384766 3.11619141 -5.03384766 3.11619141 -6.15234375 3.80859375 C-7.93899809 4.86864033 -7.93899809 4.86864033 -9 6 C-9.32460261 10.03083011 -9.32460261 10.03083011 -9 14 C-4.52451406 16.9836573 -0.24648113 16.35975871 5 16 C8.46935081 15.43282211 8.46935081 15.43282211 11 14 C12.25827123 12.15017528 12.25827123 12.15017528 13 10 C13.97581759 8.64886795 14.97029741 7.31053056 16 6 C15.92478893 9.15886495 15.62522327 11.30084288 13.48046875 13.69921875 C7.97481924 18.48623612 3.91213181 19.27835405 -3.328125 19.23046875 C-7.05486847 18.90900988 -9.38915392 17.61084608 -12 15 C-12.44170119 11.94595177 -12.46776673 9.05087856 -12 6 C-8.74472889 1.75006272 -5.40069956 -1.80023319 0 0 Z " fill="#021917" transform="translate(848,538)"/>
<path d="M0 0 C4.87773605 0.45374289 7.52177888 1.52177888 11 5 C14.3748401 10.78544018 15.15202022 15.28858841 15.1875 21.9375 C15.20167969 23.14277344 15.21585938 24.34804688 15.23046875 25.58984375 C14.8094143 31.82002227 12.33942065 35.56195615 8 40 C4.6875 41.375 4.6875 41.375 2 42 C2 41.34 2 40.68 2 40 C3.65071396 38.97388051 5.31970006 37.97691857 7 37 C9.84178647 34.68447028 10.85670637 32.46783255 12 29 C12.68829781 21.85290761 13.24404797 13.93847109 9.421875 7.58203125 C7.17525398 5.08235676 4.55142974 3.49392659 1.609375 1.91015625 C1.07828125 1.60980469 0.5471875 1.30945313 0 1 C0 0.67 0 0.34 0 0 Z " fill="#021917" transform="translate(556,512)"/>
<path d="M0 0 C1.48831242 0.00667405 2.97660807 0.01863442 4.46484375 0.03515625 C5.22345703 0.03966797 5.98207031 0.04417969 6.76367188 0.04882812 C8.64326246 0.06064945 10.52281274 0.07858547 12.40234375 0.09765625 C9.40234375 2.09765625 9.40234375 2.09765625 -2.59765625 2.09765625 C-2.59765625 13.31765625 -2.59765625 24.53765625 -2.59765625 36.09765625 C-3.25765625 35.76765625 -3.91765625 35.43765625 -4.59765625 35.09765625 C-4.62230815 30.27384823 -4.64049318 25.45007658 -4.65258789 20.6262207 C-4.65762799 18.98396161 -4.66446003 17.34170702 -4.6730957 15.69946289 C-4.68517551 13.34390146 -4.69088764 10.98839916 -4.6953125 8.6328125 C-4.70047379 7.89426529 -4.70563507 7.15571808 -4.71095276 6.39479065 C-4.71114875 4.62867537 -4.65960344 2.86268479 -4.59765625 1.09765625 C-3.59765625 0.09765625 -3.59765625 0.09765625 0 0 Z " fill="#021311" transform="translate(922.59765625,510.90234375)"/>
<path d="M0 0 C0.33 0 0.66 0 1 0 C1 12.87 1 25.74 1 39 C6.61 39 12.22 39 18 39 C18.33 39.99 18.66 40.98 19 42 C12.73 42 6.46 42 0 42 C0 28.14 0 14.28 0 0 Z " fill="#051413" transform="translate(789,528)"/>
<path d="M0 0 C2.08060438 1.87254394 3.37159155 3.59454647 4.875 6 C7.55970366 9.79016987 9.63921549 11.54505715 14.25 12.43359375 C18.75596273 13.17232282 18.75596273 13.17232282 23 12 C23.763125 11.896875 24.52625 11.79375 25.3125 11.6875 C28.65909013 10.83139555 30.4729572 9.3164559 33 7 C33.33 6.34 33.66 5.68 34 5 C34.66 5 35.32 5 36 5 C35.13472462 8.78557977 33.60576489 10.60226339 30.5 12.75 C25.21772784 15.77390942 19.75346874 16.80571842 13.76171875 15.51953125 C8.24335309 13.63850642 4.20656827 11.03868431 1.1875 5.9375 C0 3 0 3 0 0 Z " fill="#031715" transform="translate(620,540)"/>
<path d="M0 0 C0.33 0 0.66 0 1 0 C1.33 4.62 1.66 9.24 2 14 C7.61 14 13.22 14 19 14 C19.33 13.01 19.66 12.02 20 11 C20.66 12.65 21.32 14.3 22 16 C17.37540756 17.17700048 12.92133538 17.11408412 8.1875 17.0625 C7.00510742 17.05573242 7.00510742 17.05573242 5.79882812 17.04882812 C3.86585239 17.03711312 1.93291607 17.01917998 0 17 C-1.07957377 13.76127868 -1.13326784 11.33971795 -1.125 7.9375 C-1.12757813 6.87402344 -1.13015625 5.81054688 -1.1328125 4.71484375 C-1 2 -1 2 0 0 Z " fill="#051A19" transform="translate(391,553)"/>
<path d="M0 0 C0.66 0.33 1.32 0.66 2 1 C0.53515625 3.39257812 0.53515625 3.39257812 -0.9296875 5.78515625 C-4.31750063 12.79570385 -4.24865865 19.27541977 -4.125 26.9375 C-4.11146484 28.53561523 -4.11146484 28.53561523 -4.09765625 30.16601562 C-4.07423414 32.77758034 -4.04143452 35.38866937 -4 38 C-4.66 38 -5.32 38 -6 38 C-9.13101013 25.08781771 -8.28442606 13.84447902 -2 2 C-1.34 1.34 -0.68 0.68 0 0 Z " fill="#031E1C" transform="translate(520,509)"/>
<path d="M0 0 C0.66 0 1.32 0 2 0 C-0.1296878 5.22439038 -4.07285974 6.73291092 -9 9 C-17.96684306 12.7411332 -27.54489092 13.16715994 -37 11 C-37 10.34 -37 9.68 -37 9 C-35.09927734 9.05220703 -35.09927734 9.05220703 -33.16015625 9.10546875 C-31.46095089 9.13363237 -29.76173102 9.16092975 -28.0625 9.1875 C-27.23169922 9.21263672 -26.40089844 9.23777344 -25.54492188 9.26367188 C-17.80670751 9.35400123 -10.99963269 7.71696774 -4.5 3.375 C-3.8503125 2.94960938 -3.200625 2.52421875 -2.53125 2.0859375 C-1.02897183 1.08488466 -1.02897183 1.08488466 0 0 Z " fill="#061C1A" transform="translate(493,560)"/>
<path d="M0 0 C5.91036346 0.36185899 9.71028419 1.84337799 14 6 C19.26520111 12.75168269 21.34083425 19.30804051 21.125 27.875 C21.11597656 28.56335938 21.10695313 29.25171875 21.09765625 29.9609375 C21.07432513 31.64077838 21.03846326 33.32043746 21 35 C20.67 35 20.34 35 20 35 C19.76216797 33.081875 19.76216797 33.081875 19.51953125 31.125 C19.28485122 29.41652941 19.04911779 27.70820329 18.8125 26 C18.71130859 25.16082031 18.61011719 24.32164062 18.50585938 23.45703125 C17.51057678 16.51695262 15.31999636 10.85630971 9.90234375 6.1953125 C9.25394531 5.84210938 8.60554687 5.48890625 7.9375 5.125 C7.28652344 4.75632812 6.63554688 4.38765625 5.96484375 4.0078125 C3.98319721 2.99138147 1.9964241 1.9870961 0 1 C0 0.67 0 0.34 0 0 Z " fill="#031413" transform="translate(862,496)"/>
<path d="M0 0 C0.66 0 1.32 0 2 0 C2.84257145 2.93477595 3.12845205 5.5481413 3.1328125 8.59765625 C3.13474609 9.47719971 3.13667969 10.35674316 3.13867188 11.26293945 C3.13416016 12.18679443 3.12964844 13.11064941 3.125 14.0625 C3.12306641 15.00246826 3.12113281 15.94243652 3.11914062 16.91088867 C3.07927878 23.31369681 2.83347468 29.64475557 2 36 C-0.39954544 32.26368357 -0.22993687 28.97204502 -0.1953125 24.609375 C-0.1924826 23.90476135 -0.18965271 23.20014771 -0.18673706 22.47418213 C-0.17557801 20.2326124 -0.15048193 17.99144814 -0.125 15.75 C-0.11496464 14.22656829 -0.10583976 12.70313029 -0.09765625 11.1796875 C-0.07565291 7.45299414 -0.04115272 3.72653667 0 0 Z " fill="#011714" transform="translate(710,512)"/>
<path d="M0 0 C0.66 0.33 1.32 0.66 2 1 C-2.46388229 6.23556407 -7.00987419 11.01221928 -12.265625 15.453125 C-14.15625549 17.05271408 -14.15625549 17.05271408 -16 19.5 C-18.91690402 23.14613003 -22.43543312 26.00221291 -26 29 C-26.61101562 29.51433594 -27.22203125 30.02867187 -27.8515625 30.55859375 C-29.22967314 31.7113735 -30.61408239 32.85661797 -32 34 C-30.68623083 31.09456128 -29.27943508 29.03338941 -27.01904297 26.79199219 C-26.41857147 26.19167175 -25.81809998 25.59135132 -25.19943237 24.97283936 C-24.55354156 24.33727112 -23.90765076 23.70170288 -23.2421875 23.046875 C-22.57913605 22.38665344 -21.91608459 21.72643188 -21.23294067 21.04620361 C-19.11828168 18.94272176 -16.99676788 16.84630858 -14.875 14.75 C-13.43834443 13.32337739 -12.00214102 11.89629928 -10.56640625 10.46875 C-7.04949196 6.97386339 -3.52641453 3.48529938 0 0 Z " fill="#1AAA96" transform="translate(202,451)"/>
<path d="M0 0 C0.66 0.33 1.32 0.66 2 1 C2.52989942 13.55567246 2.30515108 24.75698034 -6 35 C-6.66 35 -7.32 35 -8 35 C-6.57062805 31.18834147 -4.8171042 27.64635353 -2.90234375 24.0625 C-0.69768626 19.02328288 -0.71434032 13.60177059 -0.4375 8.1875 C-0.37272461 7.00510742 -0.37272461 7.00510742 -0.30664062 5.79882812 C-0.20121679 3.86605785 -0.10016906 1.93304974 0 0 Z " fill="#041615" transform="translate(504,524)"/>
<path d="M0 0 C1.85625 0.0309375 1.85625 0.0309375 3.75 0.0625 C3.75 0.3925 3.75 0.7225 3.75 1.0625 C2.89728516 1.20945312 2.89728516 1.20945312 2.02734375 1.359375 C-3.86981779 2.50139627 -9.57958375 3.68275443 -13.5 8.64453125 C-16.90931974 14.59830653 -17.47248988 21.35136002 -18.25 28.0625 C-20.83978615 24.17782077 -20.35615015 22.17954719 -19.78125 17.69140625 C-18.41102335 10.91079937 -15.28829374 6.57625865 -10.03125 2.19140625 C-6.80152141 0.14449493 -3.75596717 -0.06259945 0 0 Z " fill="#04221F" transform="translate(638.25,510.9375)"/>
<path d="M0 0 C5.05119236 0.48106594 7.95952905 1.96964679 12 5 C13.485 6.0209375 13.485 6.0209375 15 7.0625 C19.2583992 10.69002525 21.98536135 15.84909763 24 21 C24.1640625 24.34765625 24.1640625 24.34765625 24 27 C22.08038705 24.12058058 20.75363335 21.32640688 19.3125 18.1875 C14.84220906 9.22532251 8.73112185 5.47445247 0 1 C0 0.67 0 0.34 0 0 Z " fill="#031715" transform="translate(652,497)"/>
<path d="M0 0 C0.79857422 0.48339844 0.79857422 0.48339844 1.61328125 0.9765625 C1.61328125 1.3065625 1.61328125 1.6365625 1.61328125 1.9765625 C0.63488281 1.94175781 -0.34351563 1.90695312 -1.3515625 1.87109375 C-11.35665316 1.66449896 -19.71353779 1.79842547 -27.38671875 8.9765625 C-28.04671875 8.6465625 -28.70671875 8.3165625 -29.38671875 7.9765625 C-22.30464239 -0.24778424 -10.50130449 -4.50301437 0 0 Z " fill="#031918" transform="translate(790.38671875,495.0234375)"/>
<path d="M0 0 C0.66 0.33 1.32 0.66 2 1 C-0.23478187 5.46956374 -2.62362354 7.60537892 -7 10 C-13.0922286 12.03074287 -18.61095524 12.23566149 -25 12 C-25.33 11.34 -25.66 10.68 -26 10 C-25.01 9.90203125 -24.02 9.8040625 -23 9.703125 C-10.81097633 8.54747232 -10.81097633 8.54747232 -1 1.75 C-0.67 1.1725 -0.34 0.595 0 0 Z " fill="#061F1D" transform="translate(568,560)"/>
<path d="M0 0 C2.26756502 1.92743027 3.28922836 3.55703239 4.6875 6.25 C9.22863317 14.3554943 16.42869803 18.17217292 25 21 C25 21.33 25 21.66 25 22 C19.46037457 22.8746777 15.99305521 20.72879985 11.47265625 17.8515625 C6.63045851 14.22565139 2.2951305 9.67162057 0 4 C0 2.68 0 1.36 0 0 Z " fill="#051715" transform="translate(516,548)"/>
<path d="M0 0 C0 0.33 0 0.66 0 1 C-1.794375 1.12375 -1.794375 1.12375 -3.625 1.25 C-7.91730223 1.76659567 -10.52170404 3.41150068 -14 6 C-14.99 6.33 -15.98 6.66 -17 7 C-20.47746968 13.75038232 -21.34358862 21.537639 -22 29 C-22.33 29 -22.66 29 -23 29 C-23.40164393 20.07457938 -23.21059744 12.97442533 -17.6875 5.6875 C-12.15820967 0.15820967 -7.47778779 -0.44866727 0 0 Z " fill="#031212" transform="translate(555,511)"/>
<path d="M0 0 C0.33 0 0.66 0 1 0 C1.33 4.29 1.66 8.58 2 13 C4.6915625 12.9690625 4.6915625 12.9690625 7.4375 12.9375 C9.29166122 12.9161878 11.14712498 12.92773498 13 13 C14 14 14 14 14.09765625 17.37890625 C14.09098369 18.77347077 14.07902532 20.16801743 14.0625 21.5625 C14.05798828 22.27341797 14.05347656 22.98433594 14.04882812 23.71679688 C14.03700864 25.47790013 14.01907263 27.23896036 14 29 C13.67 29 13.34 29 13 29 C13 24.38 13 19.76 13 15 C8.71 15 4.42 15 0 15 C0 10.05 0 5.1 0 0 Z " fill="#031E1C" transform="translate(888,498)"/>
<path d="M0 0 C0.33 0 0.66 0 1 0 C1.14695312 1.19496094 1.14695312 1.19496094 1.296875 2.4140625 C2.38813918 10.14698626 3.48557375 15.30809904 9.9375 20.25 C12.5924176 21.76709577 15.12173646 22.98414228 18 24 C18 24.33 18 24.66 18 25 C11.53065076 24.73044378 7.66890425 22.4480777 3 18 C-1.10036451 12.61827157 -0.28239491 6.46370565 0 0 Z " fill="#041110" transform="translate(818,545)"/>
<path d="M0 0 C0.33 0 0.66 0 1 0 C1 5.61 1 11.22 1 17 C-4.61 17 -10.22 17 -16 17 C-16.33 16.34 -16.66 15.68 -17 15 C-11.72 15 -6.44 15 -1 15 C-0.67 10.05 -0.34 5.1 0 0 Z " fill="#072422" transform="translate(730,496)"/>
<path d="M0 0 C5.44881846 1.03787018 7.65399232 3.40725005 10.67578125 7.77734375 C13.517619 12.54727201 15.53114109 17.33449506 15 23 C14.34 23 13.68 23 13 23 C12.82984375 22.27554688 12.6596875 21.55109375 12.484375 20.8046875 C10.23984891 11.85046107 7.183121 6.71384625 0 1 C0 0.67 0 0.34 0 0 Z " fill="#021816" transform="translate(793,497)"/>
<path d="M0 0 C0.76376953 -0.00386719 1.52753906 -0.00773437 2.31445312 -0.01171875 C3.05501953 -0.01042969 3.79558594 -0.00914062 4.55859375 -0.0078125 C5.23075928 -0.00668457 5.9029248 -0.00555664 6.59545898 -0.00439453 C8.68417459 0.13300391 10.55080925 0.55969441 12.5625 1.125 C12.5625 1.785 12.5625 2.445 12.5625 3.125 C4.3125 3.125 -3.9375 3.125 -12.4375 3.125 C-10.2119711 -1.3260578 -4.34736691 -0.02190109 0 0 Z " fill="#041A18" transform="translate(638.4375,493.875)"/>
<path d="M0 0 C0 0.66 0 1.32 0 2 C-4.30066702 5.46151248 -7.59183396 6.36374517 -13 7 C-13.33 7.66 -13.66 8.32 -14 9 C-15.4800841 8.88637738 -16.95910074 8.75877092 -18.4375 8.625 C-19.26121094 8.55539062 -20.08492187 8.48578125 -20.93359375 8.4140625 C-21.61550781 8.27742187 -22.29742188 8.14078125 -23 8 C-23.33 7.34 -23.66 6.68 -24 6 C-22.99839844 5.90203125 -21.99679687 5.8040625 -20.96484375 5.703125 C-14.05508982 4.95185734 -5.90209517 0 0 0 Z " fill="#061D1A" transform="translate(861,564)"/>
<path d="M0 0 C0 3 0 3 -1.8359375 5.17651367 C-2.67382812 5.99869385 -3.51171875 6.82087402 -4.375 7.66796875 C-5.27734375 8.56064453 -6.1796875 9.45332031 -7.109375 10.37304688 C-8.0727573 11.31136157 -9.03630108 12.2495105 -10 13.1875 C-10.96422346 14.13667769 -11.92777392 15.08653956 -12.890625 16.03710938 C-15.25386746 18.36490319 -17.62381482 20.68543133 -20 23 C-20.66 22.67 -21.32 22.34 -22 22 C-21.36191406 21.38511719 -20.72382813 20.77023437 -20.06640625 20.13671875 C-19.24011719 19.32847656 -18.41382813 18.52023437 -17.5625 17.6875 C-16.73878906 16.88699219 -15.91507812 16.08648437 -15.06640625 15.26171875 C-12.80596523 13.09529192 -12.80596523 13.09529192 -12 10 C-11.01 10 -10.02 10 -9 10 C-9 9.01 -9 8.02 -9 7 C-7.36209288 5.95355934 -5.68991979 4.9601817 -4 4 C-2.63015802 2.70420353 -1.2848951 1.38007251 0 0 Z " fill="#1CAA94" transform="translate(295,464)"/>
<path d="M0 0 C1.12862175 5.36095333 1.09688221 10.55306686 1 16 C0.01 16.33 -0.98 16.66 -2 17 C-2 12.38 -2 7.76 -2 3 C-6.29 3 -10.58 3 -15 3 C-15 2.67 -15 2.34 -15 2 C-14.15695312 1.93941406 -13.31390625 1.87882812 -12.4453125 1.81640625 C-11.34960938 1.73261719 -10.25390625 1.64882813 -9.125 1.5625 C-8.03445313 1.48128906 -6.94390625 1.40007812 -5.8203125 1.31640625 C-3.74256403 1.08330704 -1.94647858 0 0 0 Z " fill="#021313" transform="translate(439,467)"/>
<path d="M0 0 C0.68513672 -0.01224609 1.37027344 -0.02449219 2.07617188 -0.03710938 C3.86484112 -0.04237533 5.65298848 0.06549979 7.4375 0.1875 C8.0975 0.8475 8.7575 1.5075 9.4375 2.1875 C-0.9575 2.6825 -0.9575 2.6825 -11.5625 3.1875 C-9.43919252 -1.05911497 -4.17152993 0.00394658 0 0 Z " fill="#041918" transform="translate(851.5625,493.8125)"/>
<path d="M0 0 C0.66 0 1.32 0 2 0 C2.05411124 2.41696872 2.09372278 4.83271787 2.125 7.25 C2.14175781 7.93191406 2.15851562 8.61382813 2.17578125 9.31640625 C2.21213482 13.0608235 2.07944349 15.82352727 0 19 C-0.33 19 -0.66 19 -1 19 C-0.67 12.73 -0.34 6.46 0 0 Z " fill="#031917" transform="translate(676,525)"/>
<path d="M0 0 C0.33 0.66 0.66 1.32 1 2 C0.071875 3.299375 0.071875 3.299375 -0.875 4.625 C-4.4296465 10.27061503 -5.32625075 15.48709062 -6 22 C-6.33 22 -6.66 22 -7 22 C-7.48019688 14.74369165 -7.28626358 9.07817979 -3 3 C-2.02473842 1.97585897 -1.03052354 0.96851496 0 0 Z " fill="#02100E" transform="translate(454,515)"/>
<path d="M0 0 C0.66 0.33 1.32 0.66 2 1 C1.401875 1.928125 0.80375 2.85625 0.1875 3.8125 C-2.55890511 8.56251026 -3.73485764 13.69982025 -5 19 C-5.33 19 -5.66 19 -6 19 C-6.66677162 11.79886654 -4.66563017 7.16546977 -1 1 C-0.67 0.67 -0.34 0.34 0 0 Z " fill="#021211" transform="translate(520,509)"/>
<path d="M0 0 C0.87056734 2.41286875 1.18561853 3.55539942 0.1796875 5.96484375 C-2.5635332 10.11252774 -5.32569507 13.64063549 -9 17 C-9.66 16.67 -10.32 16.34 -11 16 C-10.54109375 15.5153125 -10.0821875 15.030625 -9.609375 14.53125 C-5.40998532 9.94368144 -2.53511826 5.67866491 0 0 Z " fill="#041211" transform="translate(674,546)"/>
<path d="M0 0 C9.12177122 6.64206642 9.12177122 6.64206642 12 10 C12 10.66 12 11.32 12 12 C12.66 12 13.32 12 14 12 C14 12.66 14 13.32 14 14 C14.66 14.33 15.32 14.66 16 15 C12.86915901 14.42235562 11.22256994 13.59969956 8.984375 11.34765625 C8.45585937 10.81849609 7.92734375 10.28933594 7.3828125 9.74414062 C6.84398437 9.18919922 6.30515625 8.63425781 5.75 8.0625 C5.19570312 7.51142578 4.64140625 6.96035156 4.0703125 6.39257812 C0 2.26712592 0 2.26712592 0 0 Z " fill="#109583" transform="translate(153,472)"/>
<path d="M0 0 C0.33 0 0.66 0 1 0 C1.33 5.28 1.66 10.56 2 16 C2.99 16.33 3.98 16.66 5 17 C3.35 17 1.7 17 0 17 C-1.07957377 13.76127868 -1.13326784 11.33971795 -1.125 7.9375 C-1.12757813 6.87402344 -1.13015625 5.81054688 -1.1328125 4.71484375 C-1 2 -1 2 0 0 Z " fill="#0A2522" transform="translate(391,553)"/>
<path d="M0 0 C0.66 0.66 1.32 1.32 2 2 C1.67 2.99 1.34 3.98 1 5 C0.4225 4.38125 -0.155 3.7625 -0.75 3.125 C-5.49576556 0.02199944 -10.44494161 -0.32665959 -16 -1 C-16 -1.33 -16 -1.66 -16 -2 C-9.99212199 -3.40609911 -5.6079703 -2.59268688 0 0 Z " fill="#062623" transform="translate(651,514)"/>
<path d="M0 0 C-1.12148438 0.70576172 -1.12148438 0.70576172 -2.265625 1.42578125 C-3.74289062 2.35970703 -3.74289062 2.35970703 -5.25 3.3125 C-6.22453125 3.92738281 -7.1990625 4.54226563 -8.203125 5.17578125 C-10.54733713 6.70475759 -12.78784032 8.28820977 -15 10 C-13.63310446 6.84930578 -12.14342115 4.99108226 -9.5 2.8125 C-8.8915625 2.30332031 -8.283125 1.79414063 -7.65625 1.26953125 C-4.69541941 -0.99997333 -3.51169027 -1.05350708 0 0 Z " fill="#021413" transform="translate(537,498)"/>
<path d="M0 0 C0.33 0 0.66 0 1 0 C1.28875 1.134375 1.5775 2.26875 1.875 3.4375 C2.24625 4.613125 2.6175 5.78875 3 7 C5.29629994 8.14814997 7.07698086 8.30769809 9.625 8.5625 C10.44226563 8.64628906 11.25953125 8.73007812 12.1015625 8.81640625 C12.72804688 8.87699219 13.35453125 8.93757812 14 9 C14 9.33 14 9.66 14 10 C4.90602679 11.59665179 4.90602679 11.59665179 1.4375 9.3125 C0.04990497 7.08028191 -0.74786621 5.60538254 -1 3 C-0.67 2.01 -0.34 1.02 0 0 Z " fill="#052421" transform="translate(920,544)"/>
<path d="M0 0 C1.85625 0.0309375 1.85625 0.0309375 3.75 0.0625 C3.75 0.3925 3.75 0.7225 3.75 1.0625 C3.193125 1.14886719 2.63625 1.23523438 2.0625 1.32421875 C-3.33554316 2.31811521 -7.15771329 3.93570852 -11.62109375 7.13671875 C-12.15863281 7.44222656 -12.69617188 7.74773438 -13.25 8.0625 C-13.91 7.7325 -14.57 7.4025 -15.25 7.0625 C-14.17456217 6.07466806 -13.08926783 5.09756057 -12 4.125 C-11.39671875 3.57972656 -10.7934375 3.03445313 -10.171875 2.47265625 C-6.93087406 0.09460475 -3.93057933 -0.06550966 0 0 Z " fill="#040F0F" transform="translate(638.25,510.9375)"/>
<path d="M0 0 C5.56987857 -0.28809717 9.19670476 -0.20219683 14 3 C15.4375 4.9375 15.4375 4.9375 16 7 C15.625 9.25 15.625 9.25 15 11 C14.4225 9.88625 13.845 8.7725 13.25 7.625 C11.51438751 4.62547459 10.44950922 2.98557406 7 2 C4.67504723 1.61250787 2.34148732 1.27017161 0 1 C0 0.67 0 0.34 0 0 Z " fill="#031210" transform="translate(848,509)"/>
<path d="M0 0 C1.32 0.66 2.64 1.32 4 2 C3.071875 2.4125 2.14375 2.825 1.1875 3.25 C-1.97529523 4.98643659 -3.30732624 5.88191677 -5 9 C-5.72045367 12.15118325 -5.72045367 12.15118325 -6 15 C-6.33 15 -6.66 15 -7 15 C-7.48970976 7.776781 -7.48970976 7.776781 -5.1875 4.125 C-3 2 -3 2 0 0 Z " fill="#06201E" transform="translate(768,512)"/>
<path d="M0 0 C4.25185497 1.51851963 5.90428689 4.09763766 8 8 C8.58796616 10.70172878 8.80881748 13.22785349 9 16 C6.7271041 12.59065615 5.01337846 9.05179977 3.21875 5.375 C1.97243598 2.83554597 1.97243598 2.83554597 0 0 Z " fill="#021312" transform="translate(495,507)"/>
<path d="M0 0 C-0.83144531 0.50660156 -0.83144531 0.50660156 -1.6796875 1.0234375 C-2.40414062 1.46945312 -3.12859375 1.91546875 -3.875 2.375 C-4.95394531 3.03628906 -4.95394531 3.03628906 -6.0546875 3.7109375 C-8.7503992 5.49725248 -9.86341024 6.42632301 -10.625 9.625 C-10.74875 10.40875 -10.8725 11.1925 -11 12 C-11.33 12 -11.66 12 -12 12 C-12.3125 9.3125 -12.3125 9.3125 -12 6 C-8.59060971 1.83296742 -5.46223762 -1.82074587 0 0 Z " fill="#031312" transform="translate(848,538)"/>
<path d="M0 0 C0.84304688 0.23009766 0.84304688 0.23009766 1.703125 0.46484375 C4.05838878 1.01360419 6.34548104 1.31497599 8.75 1.5625 C9.54921875 1.64628906 10.3484375 1.73007812 11.171875 1.81640625 C12.07679688 1.90728516 12.07679688 1.90728516 13 2 C13 4.31 13 6.62 13 9 C12.67 9 12.34 9 12 9 C12 7.02 12 5.04 12 3 C7.71 3 3.42 3 -1 3 C-0.67 2.01 -0.34 1.02 0 0 Z " fill="#022420" transform="translate(923,495)"/>
<path d="M0 0 C0.66 0 1.32 0 2 0 C3.34331654 1.99330842 4.67594012 3.99384866 6 6 C6.99 6.66 7.98 7.32 9 8 C9 8.66 9 9.32 9 10 C4.5969913 8.65463623 2.528436 6.83947688 0 3 C0 2.01 0 1.02 0 0 Z " fill="#041916" transform="translate(534,543)"/>
<path d="M0 0 C4.87362847 0.45336079 7.39042389 1.7089159 11 5 C10.67 5.66 10.34 6.32 10 7 C8.33073546 6.02526874 6.66464358 5.04510211 5 4.0625 C4.071875 3.51722656 3.14375 2.97195313 2.1875 2.41015625 C1.465625 1.94480469 0.74375 1.47945313 0 1 C0 0.67 0 0.34 0 0 Z " fill="#021B18" transform="translate(557,496)"/>
<path d="M0 0 C0.33 0 0.66 0 1 0 C1.06058594 0.60328125 1.12117187 1.2065625 1.18359375 1.828125 C1.26738281 2.62734375 1.35117187 3.4265625 1.4375 4.25 C1.55931641 5.43335938 1.55931641 5.43335938 1.68359375 6.640625 C1.97951993 8.84728444 2.29426879 10.88748009 3 13 C3.66 13.33 4.32 13.66 5 14 C3.125 13.75 3.125 13.75 1 13 C-1.03603536 9.91843297 -1.154702 7.85197363 -0.625 4.25 C-0.51414062 3.45078125 -0.40328125 2.6515625 -0.2890625 1.828125 C-0.19367187 1.22484375 -0.09828125 0.6215625 0 0 Z " fill="#072725" transform="translate(712,539)"/>
<path d="M0 0 C0.66 0 1.32 0 2 0 C2.07654536 4.51617599 2.10228696 8.59085217 1 13 C0.67 13 0.34 13 0 13 C-1.28571429 4.57142857 -1.28571429 4.57142857 0 0 Z " fill="#020D0D" transform="translate(741,528)"/>
<path d="M0 0 C1.23102992 3.69308976 0.87175152 6.88050712 0.5625 10.6875 C0.51029297 11.38939453 0.45808594 12.09128906 0.40429688 12.81445312 C0.27492135 14.54338054 0.13817469 16.27175355 0 18 C-0.33 18 -0.66 18 -1 18 C-1.33 12.39 -1.66 6.78 -2 1 C-1.34 0.67 -0.68 0.34 0 0 Z " fill="#062220" transform="translate(589,469)"/>
<path d="M0 0 C0.33 0 0.66 0 1 0 C1.103125 1.093125 1.20625 2.18625 1.3125 3.3125 C1.97307727 6.85559629 2.2027092 7.93243723 5 10 C3.68 10 2.36 10 1 10 C0.34 9.34 -0.32 8.68 -1 8 C-0.96712417 5.27130593 -0.43602229 2.7033382 0 0 Z " fill="#032421" transform="translate(837,545)"/>
<path d="M0 0 C0.33 0 0.66 0 1 0 C1.86516528 4.49885947 2.30903272 7.01647791 0 11 C-0.19491452 9.54263913 -0.38069358 8.08405407 -0.5625 6.625 C-0.66691406 5.81289063 -0.77132812 5.00078125 -0.87890625 4.1640625 C-1 2 -1 2 0 0 Z " fill="#011212" transform="translate(619,528)"/>
<path d="M0 0 C0.556875 0.226875 1.11375 0.45375 1.6875 0.6875 C-5.0625 4.6875 -5.0625 4.6875 -7.3125 4.6875 C-7.3125 4.0275 -7.3125 3.3675 -7.3125 2.6875 C-3.15982824 -0.42700382 -3.15982824 -0.42700382 0 0 Z " fill="#021514" transform="translate(623.3125,497.3125)"/>
<path d="M0 0 C3 1 3 1 3 1 Z " fill="#13453F" transform="translate(901,474)"/>
<path d="M0 0 C2 1 2 1 2 1 Z " fill="#0F413B" transform="translate(841,573)"/>
<path d="M0 0 C2 1 2 1 2 1 Z " fill="#13413D" transform="translate(806,571)"/>
<path d="" fill="#0E3F3C" transform="translate(0,0)"/>
<path d="M0 0 C2 1 2 1 2 1 Z " fill="#0E3F3B" transform="translate(854,539)"/>
<path d="M0 0 C2 1 2 1 2 1 Z " fill="#0A4741" transform="translate(833,496)"/>
<path d="M0 0 C2 1 2 1 2 1 Z " fill="#0A413D" transform="translate(485,496)"/>
<path d="M0 0 C2 1 2 1 2 1 Z " fill="#0F4740" transform="translate(710,474)"/>
<path d="" fill="#5CC4AF" transform="translate(0,0)"/>
<path d="" fill="#134240" transform="translate(0,0)"/>
<path d="" fill="#2BB49E" transform="translate(0,0)"/>
<path d="" fill="#134440" transform="translate(0,0)"/>
<path d="" fill="#11413E" transform="translate(0,0)"/>
<path d="" fill="#10443E" transform="translate(0,0)"/>
<path d="" fill="#13433D" transform="translate(0,0)"/>
<path d="" fill="#13403B" transform="translate(0,0)"/>
<path d="" fill="#0E433C" transform="translate(0,0)"/>
<path d="" fill="#10413C" transform="translate(0,0)"/>
<path d="" fill="#12433D" transform="translate(0,0)"/>
<path d="" fill="#10413D" transform="translate(0,0)"/>
<path d="" fill="#11413D" transform="translate(0,0)"/>
<path d="" fill="#12403C" transform="translate(0,0)"/>
<path d="" fill="#14413C" transform="translate(0,0)"/>
<path d="" fill="#10403B" transform="translate(0,0)"/>
<path d="" fill="#174340" transform="translate(0,0)"/>
<path d="" fill="#13433F" transform="translate(0,0)"/>
<path d="" fill="#11453E" transform="translate(0,0)"/>
<path d="" fill="#10413D" transform="translate(0,0)"/>
<path d="" fill="#14433E" transform="translate(0,0)"/>
<path d="" fill="#0A403A" transform="translate(0,0)"/>
<path d="" fill="#0D423C" transform="translate(0,0)"/>
<path d="" fill="#11413B" transform="translate(0,0)"/>
<path d="" fill="#0C413D" transform="translate(0,0)"/>
<path d="" fill="#0C3F3B" transform="translate(0,0)"/>
<path d="" fill="#13403C" transform="translate(0,0)"/>
<path d="" fill="#0D3E3A" transform="translate(0,0)"/>
<path d="" fill="#083F3A" transform="translate(0,0)"/>
<path d="" fill="#083E37" transform="translate(0,0)"/>
<path d="" fill="#06423C" transform="translate(0,0)"/>
<path d="" fill="#0E4240" transform="translate(0,0)"/>
<path d="" fill="#0B423A" transform="translate(0,0)"/>
<path d="" fill="#0A413F" transform="translate(0,0)"/>
<path d="" fill="#0B3D38" transform="translate(0,0)"/>
<path d="" fill="#0B423B" transform="translate(0,0)"/>
<path d="" fill="#0B403E" transform="translate(0,0)"/>
<path d="" fill="#0D3F3C" transform="translate(0,0)"/>
<path d="" fill="#0D443D" transform="translate(0,0)"/>
<path d="" fill="#0B443B" transform="translate(0,0)"/>
<path d="" fill="#0B423F" transform="translate(0,0)"/>
<path d="" fill="#0D413C" transform="translate(0,0)"/>
<path d="" fill="#09403D" transform="translate(0,0)"/>
<path d="" fill="#0B423D" transform="translate(0,0)"/>
<path d="" fill="#0A423E" transform="translate(0,0)"/>
<path d="" fill="#50CAB2" transform="translate(0,0)"/>
<path d="" fill="#08413D" transform="translate(0,0)"/>
<path d="" fill="#0A413E" transform="translate(0,0)"/>
<path d="" fill="#0B413D" transform="translate(0,0)"/>
<path d="" fill="#113E3B" transform="translate(0,0)"/>
<path d="" fill="#0E433B" transform="translate(0,0)"/>
<path d="" fill="#0B4341" transform="translate(0,0)"/>
<path d="" fill="#0B413B" transform="translate(0,0)"/>
<path d="" fill="#07403A" transform="translate(0,0)"/>
<path d="" fill="#0D413D" transform="translate(0,0)"/>
<path d="" fill="#094743" transform="translate(0,0)"/>
<path d="" fill="#0C433D" transform="translate(0,0)"/>
<path d="" fill="#0C423B" transform="translate(0,0)"/>
<path d="" fill="#0D433D" transform="translate(0,0)"/>
<path d="" fill="#0D3E38" transform="translate(0,0)"/>
<path d="" fill="#0B3E38" transform="translate(0,0)"/>
<path d="" fill="#0D4942" transform="translate(0,0)"/>
<path d="" fill="#0D433F" transform="translate(0,0)"/>
<path d="" fill="#0C413D" transform="translate(0,0)"/>
<path d="" fill="#0A403B" transform="translate(0,0)"/>
<path d="" fill="#0B423C" transform="translate(0,0)"/>
<path d="" fill="#10463F" transform="translate(0,0)"/>
<path d="" fill="#10413C" transform="translate(0,0)"/>
<path d="" fill="#0D463F" transform="translate(0,0)"/>
<path d="" fill="#1C6D61" transform="translate(0,0)"/>
<path d="" fill="#154742" transform="translate(0,0)"/>
<path d="" fill="#154841" transform="translate(0,0)"/>
<path d="" fill="#12453F" transform="translate(0,0)"/>
<path d="" fill="#0E4743" transform="translate(0,0)"/>
<path d="" fill="#114641" transform="translate(0,0)"/>
<path d="" fill="#154540" transform="translate(0,0)"/>
<path d="" fill="#124443" transform="translate(0,0)"/>
<path d="" fill="#227063" transform="translate(0,0)"/>
<path d="" fill="#154944" transform="translate(0,0)"/>
<path d="" fill="#29AD99" transform="translate(0,0)"/>
<path d="" fill="#34B8A3" transform="translate(0,0)"/>
</svg>
